<!-- Generated by IcoMoon.io -->
<svg version="1.1" xmlns="http://www.w3.org/2000/svg" width="48" height="48" viewBox="0 0 48 48">
<title>autorenew</title>
<path d="M37.5 15.469c1.594 2.438 2.531 5.438 2.531 8.531 0 8.813-7.219 16.031-16.031 16.031v6l-7.969-8.063 7.969-7.969v6c6.656 0 12-5.344 12-12 0-2.063-0.563-3.938-1.406-5.625zM24 12c-6.656 0-12 5.344-12 12 0 2.063 0.469 3.938 1.406 5.625l-2.906 2.906c-1.594-2.438-2.531-5.438-2.531-8.531 0-8.813 7.219-16.031 16.031-16.031v-6l7.969 8.063-7.969 7.969v-6z"></path>
</svg>
