<!-- Generated by IcoMoon.io -->
<svg version="1.1" xmlns="http://www.w3.org/2000/svg" width="48" height="48" viewBox="0 0 48 48">
<title>cached</title>
<path d="M12 24h6l-7.969 7.969-8.063-7.969h6c0-8.813 7.219-16.031 16.031-16.031 3.094 0 6.094 0.938 8.531 2.531l-2.906 2.906c-1.688-0.938-3.563-1.406-5.625-1.406-6.656 0-12 5.344-12 12zM37.969 16.031l8.063 7.969h-6c0 8.813-7.219 16.031-16.031 16.031-3.094 0-6.094-0.938-8.531-2.531l2.906-2.906c1.688 0.938 3.563 1.406 5.625 1.406 6.656 0 12-5.344 12-12h-6z"></path>
</svg>
