<!-- Generated by IcoMoon.io -->
<svg version="1.1" xmlns="http://www.w3.org/2000/svg" width="48" height="48" viewBox="0 0 48 48">
<title>local_mall</title>
<path d="M24 25.969c5.531 0 10.031-4.406 10.031-9.938h-4.031c0 3.281-2.719 6-6 6s-6-2.719-6-6h-4.031c0 5.531 4.5 9.938 10.031 9.938zM24 6c-3.281 0-6 2.719-6 6h12c0-3.281-2.719-6-6-6zM37.969 12c2.156 0 4.031 1.875 4.031 4.031v24c0 2.156-1.875 3.938-4.031 3.938h-27.938c-2.156 0-4.031-1.781-4.031-3.938v-24c0-2.156 1.875-4.031 4.031-4.031h3.938c0-5.531 4.5-10.031 10.031-10.031s10.031 4.5 10.031 10.031h3.938z"></path>
</svg>
