<!-- Generated by IcoMoon.io -->
<svg version="1.1" xmlns="http://www.w3.org/2000/svg" width="48" height="48" viewBox="0 0 48 48">
<title>people</title>
<path d="M31.969 25.969c4.688 0 14.063 2.344 14.063 7.031v4.969h-12v-4.969c0-3-1.594-5.25-3.938-6.938 0.656-0.094 1.313-0.094 1.875-0.094zM16.031 25.969c4.688 0 13.969 2.344 13.969 7.031v4.969h-28.031v-4.969c0-4.688 9.375-7.031 14.063-7.031zM16.031 22.031c-3.281 0-6-2.719-6-6s2.719-6 6-6 5.906 2.719 5.906 6-2.625 6-5.906 6zM31.969 22.031c-3.281 0-6-2.719-6-6s2.719-6 6-6 6 2.719 6 6-2.719 6-6 6z"></path>
</svg>
