<!-- Generated by IcoMoon.io -->
<svg version="1.1" xmlns="http://www.w3.org/2000/svg" width="48" height="48" viewBox="0 0 48 48">
<title>phone</title>
<path d="M13.219 21.563c2.906 5.625 7.594 10.313 13.219 13.219l4.406-4.406c0.563-0.563 1.406-0.75 2.063-0.469 2.25 0.75 4.688 1.125 7.125 1.125 1.125 0 1.969 0.844 1.969 1.969v7.031c0 1.125-0.844 1.969-1.969 1.969-18.75 0-34.031-15.281-34.031-34.031 0-1.125 0.844-1.969 1.969-1.969h7.031c1.125 0 1.969 0.844 1.969 1.969 0 2.531 0.375 4.875 1.125 7.125 0.188 0.656 0.094 1.5-0.469 2.063z"></path>
</svg>
