<!-- Generated by IcoMoon.io -->
<svg version="1.1" xmlns="http://www.w3.org/2000/svg" width="48" height="48" viewBox="0 0 48 48">
<title>sentiment_very_satisfied</title>
<path d="M24 34.969c-4.688 0-8.625-2.813-10.219-6.938h20.438c-1.594 4.125-5.531 6.938-10.219 6.938zM17.719 19.875l-2.063 2.156-2.156-2.156 4.219-4.219 4.313 4.219-2.156 2.156zM25.969 19.875l4.313-4.219 4.219 4.219-2.156 2.156-2.063-2.156-2.156 2.156zM24 40.031c8.813 0 16.031-7.219 16.031-16.031s-7.219-16.031-16.031-16.031-16.031 7.219-16.031 16.031 7.219 16.031 16.031 16.031zM24 4.031c11.063 0 19.969 8.906 19.969 19.969s-8.906 19.969-19.969 19.969-19.969-8.906-19.969-19.969 8.906-19.969 19.969-19.969z"></path>
</svg>
