<!-- Generated by IcoMoon.io -->
<svg version="1.1" xmlns="http://www.w3.org/2000/svg" width="48" height="48" viewBox="0 0 48 48">
<title>shopping_cart</title>
<path d="M34.031 36c2.156 0 3.938 1.875 3.938 4.031s-1.781 3.938-3.938 3.938-4.031-1.781-4.031-3.938 1.875-4.031 4.031-4.031zM1.969 4.031h6.563l1.875 3.938h29.625c1.125 0 1.969 0.938 1.969 2.063 0 0.375-0.094 0.656-0.281 0.938l-7.125 12.938c-0.656 1.219-1.969 2.063-3.469 2.063h-14.906l-1.781 3.281-0.094 0.281c0 0.281 0.188 0.469 0.469 0.469h23.156v4.031h-24c-2.156 0-3.938-1.875-3.938-4.031 0-0.656 0.188-1.313 0.469-1.875l2.719-4.969-7.219-15.188h-4.031v-3.938zM13.969 36c2.156 0 4.031 1.875 4.031 4.031s-1.875 3.938-4.031 3.938-3.938-1.781-3.938-3.938 1.781-4.031 3.938-4.031z"></path>
</svg>
