<svg aria-hidden="true" style="position: absolute; width: 0; height: 0; overflow: hidden;" version="1.1" xmlns="http://www.w3.org/2000/svg" xmlns:xlink="http://www.w3.org/1999/xlink">
<defs>
<symbol id="icon-schedule" viewBox="0 0 48 48">
<title>schedule</title>
<path d="M25.031 13.969v10.5l9 5.344-1.5 2.531-10.5-6.375v-12h3zM24 40.031c8.813 0 16.031-7.219 16.031-16.031s-7.219-16.031-16.031-16.031-16.031 7.219-16.031 16.031 7.219 16.031 16.031 16.031zM24 4.031c11.063 0 19.969 8.906 19.969 19.969s-8.906 19.969-19.969 19.969-19.969-8.906-19.969-19.969 8.906-19.969 19.969-19.969z"></path>
</symbol>
<symbol id="icon-account_circle" viewBox="0 0 48 48">
<title>account_circle</title>
<path d="M24 38.438c4.969 0 9.375-2.625 12-6.469-0.094-3.938-8.063-6.188-12-6.188-4.031 0-11.906 2.25-12 6.188 2.625 3.844 7.031 6.469 12 6.469zM24 10.031c-3.281 0-6 2.719-6 6s2.719 6 6 6 6-2.719 6-6-2.719-6-6-6zM24 4.031c11.063 0 19.969 8.906 19.969 19.969s-8.906 19.969-19.969 19.969-19.969-8.906-19.969-19.969 8.906-19.969 19.969-19.969z"></path>
</symbol>
<symbol id="icon-add" viewBox="0 0 48 48">
<title>add</title>
<path d="M37.969 25.969h-12v12h-3.938v-12h-12v-3.938h12v-12h3.938v12h12v3.938z"></path>
</symbol>
<symbol id="icon-airport_shuttle" viewBox="0 0 48 48">
<title>airport_shuttle</title>
<path d="M30 22.031h10.031l-8.063-8.063h-1.969v8.063zM34.969 34.969c1.688 0 3-1.313 3-3s-1.313-3-3-3-3 1.313-3 3 1.313 3 3 3zM25.969 22.031v-8.063h-7.969v8.063h7.969zM12 34.969c1.688 0 3-1.313 3-3s-1.313-3-3-3-3 1.313-3 3 1.313 3 3 3zM6 22.031h7.969v-8.063h-7.969v8.063zM34.031 10.031l12 12v9.938h-5.063c0 3.281-2.719 6-6 6s-6-2.719-6-6h-10.969c0 3.281-2.719 6-6 6s-6-2.719-6-6h-4.031v-18c0-2.25 1.875-3.938 4.031-3.938h28.031z"></path>
</symbol>
<symbol id="icon-apps" viewBox="0 0 48 48">
<title>apps</title>
<path d="M31.969 40.031v-8.063h8.063v8.063h-8.063zM31.969 28.031v-8.063h8.063v8.063h-8.063zM19.969 16.031v-8.063h8.063v8.063h-8.063zM31.969 7.969h8.063v8.063h-8.063v-8.063zM19.969 28.031v-8.063h8.063v8.063h-8.063zM7.969 28.031v-8.063h8.063v8.063h-8.063zM7.969 40.031v-8.063h8.063v8.063h-8.063zM19.969 40.031v-8.063h8.063v8.063h-8.063zM7.969 16.031v-8.063h8.063v8.063h-8.063z"></path>
</symbol>
<symbol id="icon-arrow_back" viewBox="0 0 48 48">
<title>arrow_back</title>
<path d="M40.031 22.031v3.938h-24.375l11.156 11.25-2.813 2.813-16.031-16.031 16.031-16.031 2.813 2.813-11.156 11.25h24.375z"></path>
</symbol>
<symbol id="icon-arrow_downward" viewBox="0 0 48 48">
<title>arrow_downward</title>
<path d="M40.031 24l-16.031 16.031-16.031-16.031 2.906-2.813 11.156 11.156v-24.375h3.938v24.375l11.25-11.156z"></path>
</symbol>
<symbol id="icon-arrow_drop_down" viewBox="0 0 48 48">
<title>arrow_drop_down</title>
<path d="M13.969 19.969h20.063l-10.031 10.031z"></path>
</symbol>
<symbol id="icon-arrow_drop_up" viewBox="0 0 48 48">
<title>arrow_drop_up</title>
<path d="M13.969 28.031l10.031-10.031 10.031 10.031h-20.063z"></path>
</symbol>
<symbol id="icon-arrow_forward" viewBox="0 0 48 48">
<title>arrow_forward</title>
<path d="M24 7.969l16.031 16.031-16.031 16.031-2.813-2.813 11.156-11.25h-24.375v-3.938h24.375l-11.156-11.25z"></path>
</symbol>
<symbol id="icon-arrow_upward" viewBox="0 0 48 48">
<title>arrow_upward</title>
<path d="M7.969 24l16.031-16.031 16.031 16.031-2.906 2.813-11.156-11.156v24.375h-3.938v-24.375l-11.25 11.156z"></path>
</symbol>
<symbol id="icon-flag" viewBox="0 0 48 48">
<title>flag</title>
<path d="M28.781 12h11.25v19.969h-14.063l-0.75-3.938h-11.25v13.969h-3.938v-34.031h18z"></path>
</symbol>
<symbol id="icon-autorenew" viewBox="0 0 48 48">
<title>autorenew</title>
<path d="M37.5 15.469c1.594 2.438 2.531 5.438 2.531 8.531 0 8.813-7.219 16.031-16.031 16.031v6l-7.969-8.063 7.969-7.969v6c6.656 0 12-5.344 12-12 0-2.063-0.563-3.938-1.406-5.625zM24 12c-6.656 0-12 5.344-12 12 0 2.063 0.469 3.938 1.406 5.625l-2.906 2.906c-1.594-2.438-2.531-5.438-2.531-8.531 0-8.813 7.219-16.031 16.031-16.031v-6l7.969 8.063-7.969 7.969v-6z"></path>
</symbol>
<symbol id="icon-block" viewBox="0 0 48 48">
<title>block</title>
<path d="M24 40.031c8.813 0 16.031-7.219 16.031-16.031 0-3.656-1.219-7.125-3.375-9.844l-22.5 22.5c2.719 2.156 6.188 3.375 9.844 3.375zM7.969 24c0 3.656 1.219 7.125 3.375 9.844l22.5-22.5c-2.719-2.156-6.188-3.375-9.844-3.375-8.813 0-16.031 7.219-16.031 16.031zM24 4.031c11.063 0 19.969 8.906 19.969 19.969s-8.906 19.969-19.969 19.969-19.969-8.906-19.969-19.969 8.906-19.969 19.969-19.969z"></path>
</symbol>
<symbol id="icon-turned_in" viewBox="0 0 48 48">
<title>turned_in</title>
<path d="M34.031 6c2.156 0 3.938 1.875 3.938 4.031v31.969l-13.969-6-13.969 6v-31.969c0-2.156 1.781-4.031 3.938-4.031h20.063z"></path>
</symbol>
<symbol id="icon-cached" viewBox="0 0 48 48">
<title>cached</title>
<path d="M12 24h6l-7.969 7.969-8.063-7.969h6c0-8.813 7.219-16.031 16.031-16.031 3.094 0 6.094 0.938 8.531 2.531l-2.906 2.906c-1.688-0.938-3.563-1.406-5.625-1.406-6.656 0-12 5.344-12 12zM37.969 16.031l8.063 7.969h-6c0 8.813-7.219 16.031-16.031 16.031-3.094 0-6.094-0.938-8.531-2.531l2.906-2.906c1.688 0.938 3.563 1.406 5.625 1.406 6.656 0 12-5.344 12-12h-6z"></path>
</symbol>
<symbol id="icon-phone" viewBox="0 0 48 48">
<title>phone</title>
<path d="M13.219 21.563c2.906 5.625 7.594 10.313 13.219 13.219l4.406-4.406c0.563-0.563 1.406-0.75 2.063-0.469 2.25 0.75 4.688 1.125 7.125 1.125 1.125 0 1.969 0.844 1.969 1.969v7.031c0 1.125-0.844 1.969-1.969 1.969-18.75 0-34.031-15.281-34.031-34.031 0-1.125 0.844-1.969 1.969-1.969h7.031c1.125 0 1.969 0.844 1.969 1.969 0 2.531 0.375 4.875 1.125 7.125 0.188 0.656 0.094 1.5-0.469 2.063z"></path>
</symbol>
<symbol id="icon-photo_camera" viewBox="0 0 48 48">
<title>photo_camera</title>
<path d="M24 34.031c5.531 0 10.031-4.5 10.031-10.031s-4.5-10.031-10.031-10.031-10.031 4.5-10.031 10.031 4.5 10.031 10.031 10.031zM18 4.031h12l3.656 3.938h6.375c2.156 0 3.938 1.875 3.938 4.031v24c0 2.156-1.781 4.031-3.938 4.031h-32.063c-2.156 0-3.938-1.875-3.938-4.031v-24c0-2.156 1.781-4.031 3.938-4.031h6.375zM17.625 24c0-3.563 2.813-6.375 6.375-6.375s6.375 2.813 6.375 6.375-2.813 6.375-6.375 6.375-6.375-2.813-6.375-6.375z"></path>
</symbol>
<symbol id="icon-chat_bubble" viewBox="0 0 48 48">
<title>chat_bubble</title>
<path d="M40.031 4.031c2.156 0 3.938 1.781 3.938 3.938v24c0 2.156-1.781 4.031-3.938 4.031h-28.031l-7.969 7.969v-36c0-2.156 1.781-3.938 3.938-3.938h32.063z"></path>
</symbol>
<symbol id="icon-check" viewBox="0 0 48 48">
<title>check</title>
<path d="M18 32.344l21.188-21.188 2.813 2.813-24 24-11.156-11.156 2.813-2.813z"></path>
</symbol>
<symbol id="icon-close" viewBox="0 0 48 48">
<title>close</title>
<path d="M37.969 12.844l-11.156 11.156 11.156 11.156-2.813 2.813-11.156-11.156-11.156 11.156-2.813-2.813 11.156-11.156-11.156-11.156 2.813-2.813 11.156 11.156 11.156-11.156z"></path>
</symbol>
<symbol id="icon-content_cut" viewBox="0 0 48 48">
<title>content_cut</title>
<path d="M37.969 6h6v1.969l-13.969 14.063-4.031-4.031zM24 25.031c0.563 0 1.031-0.469 1.031-1.031s-0.469-1.031-1.031-1.031-1.031 0.469-1.031 1.031 0.469 1.031 1.031 1.031zM12 40.031c2.156 0 4.031-1.781 4.031-4.031s-1.875-4.031-4.031-4.031-4.031 1.781-4.031 4.031 1.875 4.031 4.031 4.031zM12 16.031c2.156 0 4.031-1.781 4.031-4.031s-1.875-4.031-4.031-4.031-4.031 1.781-4.031 4.031 1.875 4.031 4.031 4.031zM19.313 15.281l24.656 24.75v1.969h-6l-13.969-13.969-4.688 4.688c0.469 1.031 0.656 2.063 0.656 3.281 0 4.406-3.563 7.969-7.969 7.969s-7.969-3.563-7.969-7.969 3.563-7.969 7.969-7.969c1.219 0 2.25 0.188 3.281 0.656l4.688-4.688-4.688-4.688c-1.031 0.469-2.063 0.656-3.281 0.656-4.406 0-7.969-3.563-7.969-7.969s3.563-7.969 7.969-7.969 7.969 3.563 7.969 7.969c0 1.219-0.188 2.25-0.656 3.281z"></path>
</symbol>
<symbol id="icon-copyright" viewBox="0 0 48 48">
<title>copyright</title>
<path d="M24 40.031c8.813 0 16.031-7.219 16.031-16.031s-7.219-16.031-16.031-16.031-16.031 7.219-16.031 16.031 7.219 16.031 16.031 16.031zM24 4.031c11.063 0 19.969 8.906 19.969 19.969s-8.906 19.969-19.969 19.969-19.969-8.906-19.969-19.969 8.906-19.969 19.969-19.969zM23.719 18.281c-2.884 0-3.75 2.553-3.75 5.438v0.563c0 2.885 0.868 5.438 3.75 5.438 1.761 0 3.281-1.075 3.281-2.813h3.563c0 1.83-0.991 3.206-2.063 4.125-1.209 1.036-2.616 1.688-4.781 1.688-5.117 0-7.688-3.382-7.688-8.438v-0.563c0-2.424 0.681-4.635 1.875-6 1.237-1.414 3.22-2.531 5.813-2.531 2.075 0 3.809 0.715 4.875 1.781 1.031 1.031 1.969 2.624 1.969 4.594h-3.563c0-0.469-0.094-0.844-0.281-1.219s-0.375-0.844-0.656-1.125c-0.508-0.508-1.376-0.938-2.344-0.938z"></path>
</symbol>
<symbol id="icon-mode_edit" viewBox="0 0 48 48">
<title>mode_edit</title>
<path d="M41.438 14.063l-3.656 3.656-7.5-7.5 3.656-3.656c0.75-0.75 2.063-0.75 2.813 0l4.688 4.688c0.75 0.75 0.75 2.063 0 2.813zM6 34.5l22.125-22.125 7.5 7.5-22.125 22.125h-7.5v-7.5z"></path>
</symbol>
<symbol id="icon-date_range" viewBox="0 0 48 48">
<title>date_range</title>
<path d="M37.969 40.031v-22.031h-27.938v22.031h27.938zM37.969 7.969c2.156 0 4.031 1.875 4.031 4.031v28.031c0 2.156-1.875 3.938-4.031 3.938h-27.938c-2.25 0-4.031-1.781-4.031-3.938v-28.031c0-2.156 1.781-4.031 4.031-4.031h1.969v-3.938h4.031v3.938h15.938v-3.938h4.031v3.938h1.969zM34.031 22.031v3.938h-4.031v-3.938h4.031zM25.969 22.031v3.938h-3.938v-3.938h3.938zM18 22.031v3.938h-4.031v-3.938h4.031z"></path>
</symbol>
<symbol id="icon-delete" viewBox="0 0 48 48">
<title>delete</title>
<path d="M37.969 7.969v4.031h-27.938v-4.031h6.938l2.063-1.969h9.938l2.063 1.969h6.938zM12 37.969v-24h24v24c0 2.156-1.875 4.031-4.031 4.031h-15.938c-2.156 0-4.031-1.875-4.031-4.031z"></path>
</symbol>
<symbol id="icon-description" viewBox="0 0 48 48">
<title>description</title>
<path d="M25.969 18h11.063l-11.063-10.969v10.969zM31.969 28.031v-4.031h-15.938v4.031h15.938zM31.969 36v-4.031h-15.938v4.031h15.938zM28.031 4.031l12 12v24c0 2.156-1.875 3.938-4.031 3.938h-24c-2.156 0-4.031-1.781-4.031-3.938l0.094-32.063c0-2.156 1.781-3.938 3.938-3.938h16.031z"></path>
</symbol>
<symbol id="icon-remove_circle" viewBox="0 0 48 48">
<title>remove_circle</title>
<path d="M34.031 25.969v-3.938h-20.063v3.938h20.063zM24 4.031c11.063 0 19.969 8.906 19.969 19.969s-8.906 19.969-19.969 19.969-19.969-8.906-19.969-19.969 8.906-19.969 19.969-19.969z"></path>
</symbol>
<symbol id="icon-done" viewBox="0 0 48 48">
<title>done</title>
<path d="M18 32.438l21.188-21.281 2.813 2.813-24 24-11.156-11.156 2.719-2.813z"></path>
</symbol>
<symbol id="icon-done_all" viewBox="0 0 48 48">
<title>done_all</title>
<path d="M0.844 26.813l2.813-2.813 11.156 11.156-2.813 2.813zM44.438 11.156l2.906 2.813-24 24-11.25-11.156 2.906-2.813 8.344 8.344zM36 13.969l-12.656 12.75-2.813-2.813 12.656-12.75z"></path>
</symbol>
<symbol id="icon-markunread" viewBox="0 0 48 48">
<title>markunread</title>
<path d="M40.031 16.031v-4.031l-16.031 10.031-16.031-10.031v4.031l16.031 9.938zM40.031 7.969c2.156 0 3.938 1.875 3.938 4.031v24c0 2.156-1.781 4.031-3.938 4.031h-32.063c-2.156 0-3.938-1.875-3.938-4.031v-24c0-2.156 1.781-4.031 3.938-4.031h32.063z"></path>
</symbol>
<symbol id="icon-equalizer" viewBox="0 0 48 48">
<title>equalizer</title>
<path d="M31.969 18h8.063v22.031h-8.063v-22.031zM7.969 40.031v-16.031h8.063v16.031h-8.063zM19.969 40.031v-32.063h8.063v32.063h-8.063z"></path>
</symbol>
<symbol id="icon-favorite" viewBox="0 0 48 48">
<title>favorite</title>
<path d="M24 42.656l-2.906-2.625c-10.313-9.375-17.063-15.469-17.063-23.063 0-6.188 4.781-10.969 10.969-10.969 3.469 0 6.844 1.688 9 4.219 2.156-2.531 5.531-4.219 9-4.219 6.188 0 10.969 4.781 10.969 10.969 0 7.594-6.75 13.781-17.063 23.156z"></path>
</symbol>
<symbol id="icon-fiber_manual_record" viewBox="0 0 48 48">
<title>fiber_manual_record</title>
<path d="M7.969 24c0-8.813 7.219-16.031 16.031-16.031s16.031 7.219 16.031 16.031-7.219 16.031-16.031 16.031-16.031-7.219-16.031-16.031z"></path>
</symbol>
<symbol id="icon-get_app" viewBox="0 0 48 48">
<title>get_app</title>
<path d="M10.031 36h27.938v4.031h-27.938v-4.031zM37.969 18l-13.969 13.969-13.969-13.969h7.969v-12h12v12h7.969z"></path>
</symbol>
<symbol id="icon-file_upload" viewBox="0 0 48 48">
<title>file_upload</title>
<path d="M10.031 36h27.938v4.031h-27.938v-4.031zM18 31.969v-12h-7.969l13.969-13.969 13.969 13.969h-7.969v12h-12z"></path>
</symbol>
<symbol id="icon-star" viewBox="0 0 48 48">
<title>star</title>
<path d="M24 34.5l-12.375 7.5 3.281-14.063-10.875-9.469 14.344-1.219 5.625-13.219 5.625 13.219 14.344 1.219-10.875 9.469 3.281 14.063z"></path>
</symbol>
<symbol id="icon-people" viewBox="0 0 48 48">
<title>people</title>
<path d="M31.969 25.969c4.688 0 14.063 2.344 14.063 7.031v4.969h-12v-4.969c0-3-1.594-5.25-3.938-6.938 0.656-0.094 1.313-0.094 1.875-0.094zM16.031 25.969c4.688 0 13.969 2.344 13.969 7.031v4.969h-28.031v-4.969c0-4.688 9.375-7.031 14.063-7.031zM16.031 22.031c-3.281 0-6-2.719-6-6s2.719-6 6-6 5.906 2.719 5.906 6-2.625 6-5.906 6zM31.969 22.031c-3.281 0-6-2.719-6-6s2.719-6 6-6 6 2.719 6 6-2.719 6-6 6z"></path>
</symbol>
<symbol id="icon-headset_mic" viewBox="0 0 48 48">
<title>headset_mic</title>
<path d="M24 1.969c9.938 0 18 8.063 18 18v20.063c0 3.281-2.719 6-6 6h-12v-4.031h13.969v-1.969h-7.969v-16.031h7.969v-4.031c0-7.781-6.188-13.969-13.969-13.969s-13.969 6.188-13.969 13.969v4.031h7.969v16.031h-6c-3.281 0-6-2.719-6-6v-14.063c0-9.938 8.063-18 18-18z"></path>
</symbol>
<symbol id="icon-help" viewBox="0 0 48 48">
<title>help</title>
<path d="M30.094 22.5c1.125-1.125 1.875-2.719 1.875-4.5 0-4.406-3.563-7.969-7.969-7.969s-7.969 3.563-7.969 7.969h3.938c0-2.156 1.875-4.031 4.031-4.031s4.031 1.875 4.031 4.031c0 1.125-0.469 2.063-1.219 2.813l-2.438 2.531c-1.406 1.5-2.344 3.469-2.344 5.625v1.031h3.938c0-3 0.938-4.125 2.344-5.625zM25.969 37.969v-3.938h-3.938v3.938h3.938zM24 4.031c11.063 0 19.969 8.906 19.969 19.969s-8.906 19.969-19.969 19.969-19.969-8.906-19.969-19.969 8.906-19.969 19.969-19.969z"></path>
</symbol>
<symbol id="icon-restore" viewBox="0 0 48 48">
<title>restore</title>
<path d="M24 16.031h3v8.438l7.031 4.219-1.5 2.438-8.531-5.156v-9.938zM25.969 6c9.938 0 18 8.063 18 18s-8.063 18-18 18c-4.969 0-9.375-1.969-12.656-5.25l2.813-2.906c2.531 2.531 6 4.125 9.844 4.125 7.781 0 14.063-6.188 14.063-13.969s-6.281-13.969-14.063-13.969-13.969 6.188-13.969 13.969h6l-8.063 8.063-0.188-0.281-7.781-7.781h6c0-9.938 8.063-18 18-18z"></path>
</symbol>
<symbol id="icon-home" viewBox="0 0 48 48">
<title>home</title>
<path d="M19.969 40.031h-9.938v-16.031h-6l19.969-18 19.969 18h-6v16.031h-9.938v-12h-8.063v12z"></path>
</symbol>
<symbol id="icon-info" viewBox="0 0 48 48">
<title>info</title>
<path d="M25.969 18v-4.031h-3.938v4.031h3.938zM25.969 34.031v-12h-3.938v12h3.938zM24 4.031c11.063 0 19.969 8.906 19.969 19.969s-8.906 19.969-19.969 19.969-19.969-8.906-19.969-19.969 8.906-19.969 19.969-19.969z"></path>
</symbol>
<symbol id="icon-insert_drive_file" viewBox="0 0 48 48">
<title>insert_drive_file</title>
<path d="M25.969 18h11.063l-11.063-10.969v10.969zM12 4.031h16.031l12 12v24c0 2.156-1.875 3.938-4.031 3.938h-24c-2.156 0-4.031-1.781-4.031-3.938l0.094-32.063c0-2.156 1.781-3.938 3.938-3.938z"></path>
</symbol>
<symbol id="icon-keyboard_arrow_down" viewBox="0 0 48 48">
<title>keyboard_arrow_down</title>
<path d="M14.813 15.656l9.188 9.188 9.188-9.188 2.813 2.813-12 12-12-12z"></path>
</symbol>
<symbol id="icon-keyboard_arrow_left" viewBox="0 0 48 48">
<title>keyboard_arrow_left</title>
<path d="M30.844 32.156l-2.813 2.813-12-12 12-12 2.813 2.813-9.188 9.188z"></path>
</symbol>
<symbol id="icon-keyboard_arrow_right" viewBox="0 0 48 48">
<title>keyboard_arrow_right</title>
<path d="M17.156 32.719l9.188-9.188-9.188-9.188 2.813-2.813 12 12-12 12z"></path>
</symbol>
<symbol id="icon-keyboard_arrow_up" viewBox="0 0 48 48">
<title>keyboard_arrow_up</title>
<path d="M14.813 30.844l-2.813-2.813 12-12 12 12-2.813 2.813-9.188-9.188z"></path>
</symbol>
<symbol id="icon-label" viewBox="0 0 48 48">
<title>label</title>
<path d="M35.25 11.719l8.719 12.281-8.719 12.281c-0.75 1.031-1.969 1.688-3.281 1.688h-21.938c-2.156 0-4.031-1.781-4.031-3.938v-20.063c0-2.156 1.875-3.938 4.031-3.938h21.938c1.313 0 2.531 0.656 3.281 1.688z"></path>
</symbol>
<symbol id="icon-open_in_new" viewBox="0 0 48 48">
<title>open_in_new</title>
<path d="M28.031 6h13.969v13.969h-4.031v-7.125l-19.594 19.594-2.813-2.813 19.594-19.594h-7.125v-4.031zM37.969 37.969v-13.969h4.031v13.969c0 2.156-1.875 4.031-4.031 4.031h-27.938c-2.25 0-4.031-1.875-4.031-4.031v-27.938c0-2.156 1.781-4.031 4.031-4.031h13.969v4.031h-13.969v27.938h27.938z"></path>
</symbol>
<symbol id="icon-shopping_cart" viewBox="0 0 48 48">
<title>shopping_cart</title>
<path d="M34.031 36c2.156 0 3.938 1.875 3.938 4.031s-1.781 3.938-3.938 3.938-4.031-1.781-4.031-3.938 1.875-4.031 4.031-4.031zM1.969 4.031h6.563l1.875 3.938h29.625c1.125 0 1.969 0.938 1.969 2.063 0 0.375-0.094 0.656-0.281 0.938l-7.125 12.938c-0.656 1.219-1.969 2.063-3.469 2.063h-14.906l-1.781 3.281-0.094 0.281c0 0.281 0.188 0.469 0.469 0.469h23.156v4.031h-24c-2.156 0-3.938-1.875-3.938-4.031 0-0.656 0.188-1.313 0.469-1.875l2.719-4.969-7.219-15.188h-4.031v-3.938zM13.969 36c2.156 0 4.031 1.875 4.031 4.031s-1.875 3.938-4.031 3.938-3.938-1.781-3.938-3.938 1.781-4.031 3.938-4.031z"></path>
</symbol>
<symbol id="icon-local_mall" viewBox="0 0 48 48">
<title>local_mall</title>
<path d="M24 25.969c5.531 0 10.031-4.406 10.031-9.938h-4.031c0 3.281-2.719 6-6 6s-6-2.719-6-6h-4.031c0 5.531 4.5 9.938 10.031 9.938zM24 6c-3.281 0-6 2.719-6 6h12c0-3.281-2.719-6-6-6zM37.969 12c2.156 0 4.031 1.875 4.031 4.031v24c0 2.156-1.875 3.938-4.031 3.938h-27.938c-2.156 0-4.031-1.781-4.031-3.938v-24c0-2.156 1.875-4.031 4.031-4.031h3.938c0-5.531 4.5-10.031 10.031-10.031s10.031 4.5 10.031 10.031h3.938z"></path>
</symbol>
<symbol id="icon-local_offer" viewBox="0 0 48 48">
<title>local_offer</title>
<path d="M10.969 13.969c1.688 0 3-1.313 3-3s-1.313-3-3-3-3 1.313-3 3 1.313 3 3 3zM42.844 23.156c0.75 0.75 1.125 1.688 1.125 2.813s-0.375 2.063-1.125 2.813l-14.063 14.063c-0.75 0.75-1.688 1.125-2.813 1.125s-2.063-0.375-2.813-1.125l-18-18c-0.75-0.75-1.125-1.688-1.125-2.813v-14.063c0-2.156 1.781-3.938 3.938-3.938h14.063c1.125 0 2.063 0.375 2.813 1.125z"></path>
</symbol>
<symbol id="icon-print" viewBox="0 0 48 48">
<title>print</title>
<path d="M36 6v7.969h-24v-7.969h24zM37.969 24c1.125 0 2.063-0.844 2.063-1.969s-0.938-2.063-2.063-2.063-1.969 0.938-1.969 2.063 0.844 1.969 1.969 1.969zM31.969 37.969v-9.938h-15.938v9.938h15.938zM37.969 16.031c3.281 0 6 2.719 6 6v12h-7.969v7.969h-24v-7.969h-7.969v-12c0-3.281 2.719-6 6-6h27.938z"></path>
</symbol>
<symbol id="icon-local_shipping" viewBox="0 0 48 48">
<title>local_shipping</title>
<path d="M36 37.031c1.688 0 3-1.313 3-3s-1.313-3-3-3-3 1.313-3 3 1.313 3 3 3zM39 19.031h-4.969v4.969h8.906zM12 37.031c1.688 0 3-1.313 3-3s-1.313-3-3-3-3 1.313-3 3 1.313 3 3 3zM40.031 16.031l6 7.969v10.031h-4.031c0 3.281-2.719 6-6 6s-6-2.719-6-6h-12c0 3.281-2.719 6-6 6s-6-2.719-6-6h-4.031v-22.031c0-2.156 1.875-4.031 4.031-4.031h28.031v8.063h6z"></path>
</symbol>
<symbol id="icon-room" viewBox="0 0 48 48">
<title>room</title>
<path d="M24 22.969c2.719 0 4.969-2.25 4.969-4.969s-2.25-4.969-4.969-4.969-4.969 2.25-4.969 4.969 2.25 4.969 4.969 4.969zM24 4.031c7.781 0 13.969 6.188 13.969 13.969 0 10.5-13.969 25.969-13.969 25.969s-13.969-15.469-13.969-25.969c0-7.781 6.188-13.969 13.969-13.969z"></path>
</symbol>
<symbol id="icon-mail_outline" viewBox="0 0 48 48">
<title>mail_outline</title>
<path d="M24 22.031l16.031-10.031h-32.063zM40.031 36v-19.969l-16.031 9.938-16.031-9.938v19.969h32.063zM40.031 7.969c2.156 0 3.938 1.875 3.938 4.031v24c0 2.156-1.781 4.031-3.938 4.031h-32.063c-2.156 0-3.938-1.875-3.938-4.031v-24c0-2.156 1.781-4.031 3.938-4.031h32.063z"></path>
</symbol>
<symbol id="icon-menu" viewBox="0 0 48 48">
<title>menu</title>
<path d="M6 12h36v4.031h-36v-4.031zM6 25.969v-3.938h36v3.938h-36zM6 36v-4.031h36v4.031h-36z"></path>
</symbol>
<symbol id="icon-more_vert" viewBox="0 0 48 48">
<title>more_vert</title>
<path d="M24 31.969c2.156 0 4.031 1.875 4.031 4.031s-1.875 4.031-4.031 4.031-4.031-1.875-4.031-4.031 1.875-4.031 4.031-4.031zM24 19.969c2.156 0 4.031 1.875 4.031 4.031s-1.875 4.031-4.031 4.031-4.031-1.875-4.031-4.031 1.875-4.031 4.031-4.031zM24 16.031c-2.156 0-4.031-1.875-4.031-4.031s1.875-4.031 4.031-4.031 4.031 1.875 4.031 4.031-1.875 4.031-4.031 4.031z"></path>
</symbol>
<symbol id="icon-notifications" viewBox="0 0 48 48">
<title>notifications</title>
<path d="M36 31.969l4.031 4.031v1.969h-32.063v-1.969l4.031-4.031v-9.938c0-6.188 3.281-11.25 9-12.656v-1.406c0-1.688 1.313-3 3-3s3 1.313 3 3v1.406c5.719 1.406 9 6.563 9 12.656v9.938zM24 43.969c-2.25 0-4.031-1.781-4.031-3.938h8.063c0 2.156-1.875 3.938-4.031 3.938z"></path>
</symbol>
<symbol id="icon-notifications_active" viewBox="0 0 48 48">
<title>notifications_active</title>
<path d="M24 43.969c-2.25 0-4.031-1.781-4.031-3.938h7.969c0 2.329-1.745 3.938-3.938 3.938zM36 22.031v9.938l4.031 4.031v1.969h-32.063v-1.969l4.031-4.031v-9.938c0-6.188 3.281-11.25 9-12.656v-1.406c0-1.688 1.313-3 3-3s3 1.313 3 3v1.406c5.719 1.406 9 6.563 9 12.656zM39.938 21c-0.281-5.344-3-9.938-7.031-12.844l2.813-2.813c4.781 3.656 7.969 9.281 8.25 15.656h-4.031zM15.188 8.156c-4.125 2.906-6.844 7.5-7.125 12.844h-4.031c0.281-6.375 3.469-12 8.25-15.656z"></path>
</symbol>
<symbol id="icon-notifications_off" viewBox="0 0 48 48">
<title>notifications_off</title>
<path d="M36 29.344l-17.906-18.844c0.469-0.188 0.938-0.469 1.406-0.656h0.094l0.563-0.281c0.281-0.094 0.563-0.094 0.844-0.188v-1.406c0-1.688 1.313-3 3-3s3 1.313 3 3v1.406c5.719 1.406 9 6.469 9 12.656v7.313zM24 43.969c-2.25 0-4.031-1.688-4.031-3.938h8.063c0 2.25-1.781 3.938-4.031 3.938zM15.656 12.281c8.777 9.067 17.594 18.093 26.344 27.188l-2.531 2.531-4.031-4.031h-27.469v-1.969l4.031-4.031v-10.031c0-2.531 0.563-4.875 1.594-6.844l-5.625-5.531 2.531-2.625z"></path>
</symbol>
<symbol id="icon-party_mode" viewBox="0 0 48 48">
<title>party_mode</title>
<path d="M24 34.031c5.531 0 10.031-4.5 10.031-10.031 0-0.656-0.094-1.313-0.188-1.969h-4.219c0.188 0.656 0.375 1.313 0.375 1.969 0 3.281-2.719 6-6 6h-7.969c1.875 2.438 4.688 4.031 7.969 4.031zM24 13.969c-5.531 0-10.031 4.5-10.031 10.031 0 0.656 0.094 1.313 0.188 1.969h4.219c-0.188-0.656-0.375-1.313-0.375-1.969 0-3.281 2.719-6 6-6h7.969c-1.875-2.438-4.688-4.031-7.969-4.031zM40.031 7.969c2.156 0 3.938 1.875 3.938 4.031v24c0 2.156-1.781 4.031-3.938 4.031h-32.063c-2.156 0-3.938-1.875-3.938-4.031v-24c0-2.156 1.781-4.031 3.938-4.031h6.375l3.656-3.938h12l3.656 3.938h6.375z"></path>
</symbol>
<symbol id="icon-person" viewBox="0 0 48 48">
<title>person</title>
<path d="M24 28.031c5.344 0 16.031 2.625 16.031 7.969v4.031h-32.063v-4.031c0-5.344 10.688-7.969 16.031-7.969zM24 24c-4.406 0-7.969-3.563-7.969-7.969s3.563-8.063 7.969-8.063 7.969 3.656 7.969 8.063-3.563 7.969-7.969 7.969z"></path>
</symbol>
<symbol id="icon-phone_iphone" viewBox="0 0 48 48">
<title>phone_iphone</title>
<path d="M31.969 36v-28.031h-18v28.031h18zM22.969 43.969c1.688 0 3-1.313 3-3s-1.313-3-3-3-3 1.313-3 3 1.313 3 3 3zM31.031 1.969c2.719 0 4.969 2.344 4.969 5.063v33.938c0 2.719-2.25 5.063-4.969 5.063h-16.031c-2.719 0-4.969-2.344-4.969-5.063v-33.938c0-2.719 2.25-5.063 4.969-5.063h16.031z"></path>
</symbol>
<symbol id="icon-play_arrow" viewBox="0 0 48 48">
<title>play_arrow</title>
<path d="M16.031 10.031l21.938 13.969-21.938 13.969v-27.938z"></path>
</symbol>
<symbol id="icon-search" viewBox="0 0 48 48">
<title>search</title>
<path d="M19.031 28.031c4.969 0 9-4.031 9-9s-4.031-9-9-9-9 4.031-9 9 4.031 9 9 9zM31.031 28.031l9.938 9.938-3 3-9.938-9.938v-1.594l-0.563-0.563c-2.25 1.969-5.25 3.094-8.438 3.094-7.219 0-13.031-5.719-13.031-12.938s5.813-13.031 13.031-13.031 12.938 5.813 12.938 13.031c0 3.188-1.125 6.188-3.094 8.438l0.563 0.563h1.594z"></path>
</symbol>
<symbol id="icon-send" viewBox="0 0 48 48">
<title>send</title>
<path d="M4.031 42v-13.969l30-4.031-30-4.031v-13.969l42 18z"></path>
</symbol>
<symbol id="icon-sentiment_dissatisfied" viewBox="0 0 48 48">
<title>sentiment_dissatisfied</title>
<path d="M24 28.031c4.688 0 8.625 2.813 10.219 6.938h-3.281c-1.406-2.344-3.938-3.938-6.938-3.938s-5.531 1.594-6.938 3.938h-3.281c1.594-4.125 5.531-6.938 10.219-6.938zM24 40.031c8.813 0 16.031-7.219 16.031-16.031s-7.219-16.031-16.031-16.031-16.031 7.219-16.031 16.031 7.219 16.031 16.031 16.031zM24 4.031c11.063 0 19.969 8.906 19.969 19.969s-8.906 19.969-19.969 19.969-19.969-8.906-19.969-19.969 8.906-19.969 19.969-19.969zM13.969 19.031c0-1.688 1.313-3 3-3s3 1.313 3 3-1.313 3-3 3-3-1.313-3-3zM28.031 19.031c0-1.688 1.313-3 3-3s3 1.313 3 3-1.313 3-3 3-3-1.313-3-3z"></path>
</symbol>
<symbol id="icon-sentiment_neutral" viewBox="0 0 48 48">
<title>sentiment_neutral</title>
<path d="M24 40.031c8.813 0 16.031-7.219 16.031-16.031s-7.219-16.031-16.031-16.031-16.031 7.219-16.031 16.031 7.219 16.031 16.031 16.031zM24 4.031c11.063 0 19.969 8.906 19.969 19.969s-8.906 19.969-19.969 19.969-19.969-8.906-19.969-19.969 8.906-19.969 19.969-19.969zM13.969 19.031c0-1.688 1.313-3 3-3s3 1.313 3 3-1.313 3-3 3-3-1.313-3-3zM28.031 19.031c0-1.688 1.313-3 3-3s3 1.313 3 3-1.313 3-3 3-3-1.313-3-3zM18 28.031h12v3h-12v-3z"></path>
</symbol>
<symbol id="icon-sentiment_satisfied" viewBox="0 0 48 48">
<title>sentiment_satisfied</title>
<path d="M24 31.969c3 0 5.531-1.594 6.938-3.938h3.281c-1.594 4.125-5.531 6.938-10.219 6.938s-8.625-2.813-10.219-6.938h3.281c1.406 2.344 3.938 3.938 6.938 3.938zM24 40.031c8.813 0 16.031-7.219 16.031-16.031s-7.219-16.031-16.031-16.031-16.031 7.219-16.031 16.031 7.219 16.031 16.031 16.031zM24 4.031c11.063 0 19.969 8.906 19.969 19.969s-8.906 19.969-19.969 19.969-19.969-8.906-19.969-19.969 8.906-19.969 19.969-19.969zM13.969 19.031c0-1.688 1.313-3 3-3s3 1.313 3 3-1.313 3-3 3-3-1.313-3-3zM28.031 19.031c0-1.688 1.313-3 3-3s3 1.313 3 3-1.313 3-3 3-3-1.313-3-3z"></path>
</symbol>
<symbol id="icon-sentiment_very_dissatisfied" viewBox="0 0 48 48">
<title>sentiment_very_dissatisfied</title>
<path d="M24 28.031c4.688 0 8.625 2.813 10.219 6.938h-20.438c1.594-4.125 5.531-6.938 10.219-6.938zM15.656 24l-2.156-2.156 2.156-2.063-2.156-2.156 2.156-2.063 2.063 2.063 2.156-2.063 2.156 2.063-2.156 2.156 2.156 2.063-2.156 2.156-2.156-2.156zM32.344 15.563l2.156 2.063-2.156 2.156 2.156 2.063-2.156 2.156-2.063-2.156-2.156 2.156-2.156-2.156 2.156-2.063-2.156-2.156 2.156-2.063 2.156 2.063zM24 40.031c8.813 0 16.031-7.219 16.031-16.031s-7.219-16.031-16.031-16.031-16.031 7.219-16.031 16.031 7.219 16.031 16.031 16.031zM24 4.031c11.063 0 19.969 8.906 19.969 19.969s-8.906 19.969-19.969 19.969-19.969-8.906-19.969-19.969 8.906-19.969 19.969-19.969z"></path>
</symbol>
<symbol id="icon-sentiment_very_satisfied" viewBox="0 0 48 48">
<title>sentiment_very_satisfied</title>
<path d="M24 34.969c-4.688 0-8.625-2.813-10.219-6.938h20.438c-1.594 4.125-5.531 6.938-10.219 6.938zM17.719 19.875l-2.063 2.156-2.156-2.156 4.219-4.219 4.313 4.219-2.156 2.156zM25.969 19.875l4.313-4.219 4.219 4.219-2.156 2.156-2.063-2.156-2.156 2.156zM24 40.031c8.813 0 16.031-7.219 16.031-16.031s-7.219-16.031-16.031-16.031-16.031 7.219-16.031 16.031 7.219 16.031 16.031 16.031zM24 4.031c11.063 0 19.969 8.906 19.969 19.969s-8.906 19.969-19.969 19.969-19.969-8.906-19.969-19.969 8.906-19.969 19.969-19.969z"></path>
</symbol>
<symbol id="icon-settings" viewBox="0 0 48 48">
<title>settings</title>
<path d="M24 31.031c3.844 0 7.031-3.188 7.031-7.031s-3.188-7.031-7.031-7.031-7.031 3.188-7.031 7.031 3.188 7.031 7.031 7.031zM38.906 25.969l4.219 3.281c0.375 0.281 0.469 0.844 0.188 1.313l-4.031 6.938c-0.281 0.469-0.75 0.563-1.219 0.375l-4.969-1.969c-1.031 0.75-2.156 1.5-3.375 1.969l-0.75 5.25c-0.094 0.469-0.469 0.844-0.938 0.844h-8.063c-0.469 0-0.844-0.375-0.938-0.844l-0.75-5.25c-1.219-0.469-2.344-1.125-3.375-1.969l-4.969 1.969c-0.469 0.188-0.938 0.094-1.219-0.375l-4.031-6.938c-0.281-0.469-0.188-1.031 0.188-1.313l4.219-3.281c-0.094-0.656-0.094-1.313-0.094-1.969s0-1.313 0.094-1.969l-4.219-3.281c-0.375-0.281-0.469-0.844-0.188-1.313l4.031-6.938c0.281-0.469 0.75-0.563 1.219-0.375l4.969 1.969c1.031-0.75 2.156-1.5 3.375-1.969l0.75-5.25c0.094-0.469 0.469-0.844 0.938-0.844h8.063c0.469 0 0.844 0.375 0.938 0.844l0.75 5.25c1.219 0.469 2.344 1.125 3.375 1.969l4.969-1.969c0.469-0.188 0.938-0.094 1.219 0.375l4.031 6.938c0.281 0.469 0.188 1.031-0.188 1.313l-4.219 3.281c0.094 0.656 0.094 1.313 0.094 1.969s0 1.313-0.094 1.969z"></path>
</symbol>
<symbol id="icon-share" viewBox="0 0 48 48">
<title>share</title>
<path d="M36 32.156c3.188 0 5.813 2.625 5.813 5.813s-2.625 5.906-5.813 5.906-5.813-2.719-5.813-5.906c0-0.469 0-0.938 0.094-1.313l-14.156-8.25c-1.125 1.031-2.531 1.594-4.125 1.594-3.281 0-6-2.719-6-6s2.719-6 6-6c1.594 0 3 0.563 4.125 1.594l14.063-8.156c-0.094-0.469-0.188-0.938-0.188-1.406 0-3.281 2.719-6 6-6s6 2.719 6 6-2.719 6-6 6c-1.594 0-3-0.656-4.125-1.688l-14.063 8.25c0.094 0.469 0.188 0.938 0.188 1.406s-0.094 0.938-0.188 1.406l14.25 8.25c1.031-0.938 2.438-1.5 3.938-1.5z"></path>
</symbol>
<symbol id="icon-supervisor_account" viewBox="0 0 48 48">
<title>supervisor_account</title>
<path d="M18 25.969c1.313 0 3 0.188 4.781 0.563-4.125 2.25-4.781 5.25-4.781 6.938v4.5h-13.969v-4.969c0-4.688 9.281-7.031 13.969-7.031zM33 28.031c3.656 0 10.969 1.781 10.969 5.438v4.5h-21.938v-4.5c0-3.656 7.313-5.438 10.969-5.438zM18 22.031c-3.281 0-6-2.719-6-6s2.719-6 6-6 6 2.719 6 6-2.719 6-6 6zM33 24c-2.719 0-4.969-2.25-4.969-4.969s2.25-5.063 4.969-5.063 4.969 2.344 4.969 5.063-2.25 4.969-4.969 4.969z"></path>
</symbol>
<symbol id="icon-thumb_down" viewBox="0 0 48 48">
<title>thumb_down</title>
<path d="M37.969 6h8.063v24h-8.063v-24zM30 6c2.156 0 4.031 1.875 4.031 4.031v19.969c0 1.125-0.469 2.063-1.219 2.813l-13.125 13.219-2.156-2.156c-0.563-0.563-0.844-1.219-0.844-2.063v-0.656l1.969-9.188h-12.656c-2.156 0-4.031-1.781-4.031-3.938l0.094-0.188h-0.094v-3.844c0-0.563 0.094-1.031 0.281-1.5l6.094-14.063c0.563-1.406 1.969-2.438 3.656-2.438h18z"></path>
</symbol>
<symbol id="icon-thumb_up" viewBox="0 0 48 48">
<title>thumb_up</title>
<path d="M46.031 19.969l-0.094 0.188h0.094v3.844c0 0.563-0.094 1.031-0.281 1.5l-6.094 14.063c-0.563 1.406-1.969 2.438-3.656 2.438h-18c-2.156 0-4.031-1.875-4.031-4.031v-19.969c0-1.125 0.469-2.063 1.219-2.813l13.125-13.219 2.156 2.156c0.563 0.563 0.844 1.219 0.844 2.063v0.656l-1.969 9.188h12.656c2.156 0 4.031 1.781 4.031 3.938zM1.969 42v-24h8.063v24h-8.063z"></path>
</symbol>
<symbol id="icon-tune" viewBox="0 0 48 48">
<title>tune</title>
<path d="M30 18v-12h4.031v4.031h7.969v3.938h-7.969v4.031h-4.031zM42 25.969h-19.969v-3.938h19.969v3.938zM13.969 18h4.031v12h-4.031v-4.031h-7.969v-3.938h7.969v-4.031zM25.969 42h-3.938v-12h3.938v4.031h16.031v3.938h-16.031v4.031zM6 10.031h19.969v3.938h-19.969v-3.938zM6 34.031h12v3.938h-12v-3.938z"></path>
</symbol>
<symbol id="icon-verified_user" viewBox="0 0 48 48">
<title>verified_user</title>
<path d="M19.969 34.031l16.031-16.031-2.813-2.813-13.219 13.125-5.156-5.156-2.813 2.813zM24 1.969l18 8.063v12c0 11.063-7.688 21.469-18 24-10.313-2.531-18-12.938-18-24v-12z"></path>
</symbol>
<symbol id="icon-view_list" viewBox="0 0 48 48">
<title>view_list</title>
<path d="M18 10.031h24v7.969h-24v-7.969zM18 37.969v-7.969h24v7.969h-24zM18 28.031v-8.063h24v8.063h-24zM7.969 18v-7.969h8.063v7.969h-8.063zM7.969 37.969v-7.969h8.063v7.969h-8.063zM7.969 28.031v-8.063h8.063v8.063h-8.063z"></path>
</symbol>
<symbol id="icon-view_module" viewBox="0 0 48 48">
<title>view_module</title>
<path d="M31.969 10.031h10.031v12h-10.031v-12zM19.969 22.031v-12h10.031v12h-10.031zM31.969 36v-12h10.031v12h-10.031zM19.969 36v-12h10.031v12h-10.031zM7.969 36v-12h10.031v12h-10.031zM7.969 22.031v-12h10.031v12h-10.031z"></path>
</symbol>
<symbol id="icon-whatshot" viewBox="0 0 48 48">
<title>whatshot</title>
<path d="M23.438 37.969c5.344 0 9.563-4.219 9.563-9.563 0-2.813-0.375-5.438-1.125-8.063-2.063 2.719-5.719 4.406-9.281 5.156s-5.625 2.906-5.625 6.188c0 3.469 2.906 6.281 6.469 6.281zM27 1.313c7.781 6.281 13.031 15.938 13.031 26.719 0 8.813-7.219 15.938-16.031 15.938s-16.031-7.125-16.031-15.938c0-6.75 2.438-13.031 6.469-17.813v0.75c0 4.125 3.094 7.406 7.219 7.406s6.844-3.281 6.844-7.406c0-4.313-1.5-9.656-1.5-9.656z"></path>
</symbol>
<symbol id="icon-zoom_in" viewBox="0 0 48 48">
<title>zoom_in</title>
<path d="M24 19.969h-4.031v4.031h-1.969v-4.031h-4.031v-1.969h4.031v-4.031h1.969v4.031h4.031v1.969zM19.031 28.031c4.969 0 9-4.031 9-9s-4.031-9-9-9-9 4.031-9 9 4.031 9 9 9zM31.031 28.031l9.938 9.938-3 3-9.938-9.938v-1.594l-0.563-0.563c-2.25 1.969-5.25 3.094-8.438 3.094-7.219 0-13.031-5.719-13.031-12.938s5.813-13.031 13.031-13.031 12.938 5.813 12.938 13.031c0 3.188-1.125 6.188-3.094 8.438l0.563 0.563h1.594z"></path>
</symbol>
<symbol id="icon-zoom_out" viewBox="0 0 48 48">
<title>zoom_out</title>
<path d="M13.969 18h10.031v1.969h-10.031v-1.969zM19.031 28.031c4.969 0 9-4.031 9-9s-4.031-9-9-9-9 4.031-9 9 4.031 9 9 9zM31.031 28.031l9.938 9.938-3 3-9.938-9.938v-1.594l-0.563-0.563c-2.25 1.969-5.25 3.094-8.438 3.094-7.219 0-13.031-5.719-13.031-12.938s5.813-13.031 13.031-13.031 12.938 5.813 12.938 13.031c0 3.188-1.125 6.188-3.094 8.438l0.563 0.563h1.594z"></path>
</symbol>
<symbol id="icon-zoom_out_map" viewBox="0 0 48 48">
<title>zoom_out_map</title>
<path d="M42 30v12h-12l4.594-4.594-5.813-5.719 2.906-2.906 5.719 5.813zM18 42h-12v-12l4.594 4.594 5.719-5.813 2.906 2.906-5.813 5.719zM6 18v-12h12l-4.594 4.594 5.813 5.719-2.906 2.906-5.719-5.813zM30 6h12v12l-4.594-4.594-5.719 5.813-2.906-2.906 5.813-5.719z"></path>
</symbol>

<symbol id="icon-document"  viewBox="0 0 48 48">
<title>icon-document</title>
<svg version="1.1">
<polygon id="XMLID_97_" style="fill:#F3D55C;" points="23,13 20,5 0,5 0,13 0,52 48,52 48,13 "/><path id="XMLID_111_" style="fill:#F0C41B;" d="M48,17h9l-8.938,34.761C48.052,51.796,48,51.79,48,51.753V17z"/><rect id="XMLID_110_" x="6" y="33" style="fill:#F5F1E2;" width="22" height="13"/><path id="XMLID_109_" style="fill:#D6D0BB;" d="M19,43h-9c-0.553,0-1-0.447-1-1c0-0.553,0.447-1,1-1h9c0.553,0,1,0.447,1,1C20,42.553,19.553,43,19,43"/><path id="XMLID_108_" style="fill:#D6D0BB;" d="M14,38h-4c-0.553,0-1-0.447-1-1c0-0.553,0.447-1,1-1h4c0.553,0,1,0.447,1,1C15,37.553,14.553,38,14,38"/><path id="XMLID_107_" style="fill:#D6D0BB;" d="M24,38h-2c-0.553,0-1-0.447-1-1c0-0.553,0.447-1,1-1h2c0.553,0,1,0.447,1,1C25,37.553,24.553,38,24,38"/><path id="XMLID_106_" style="fill:#D6D0BB;" d="M23,43c-0.271,0-0.521-0.11-0.71-0.3C22.109,42.52,22,42.27,22,42c0-0.271,0.109-0.521,0.29-0.71c0.37-0.37,1.05-0.37,1.42,0C23.89,41.479,24,41.74,24,42s-0.11,0.52-0.29,0.71C23.52,42.89,23.26,43,23,43"/><path id="XMLID_105_" style="fill:#D6D0BB;" d="M18,38c-0.26,0-0.521-0.11-0.71-0.29C17.109,37.52,17,37.26,17,37s0.109-0.521,0.29-0.71c0.358-0.37,1.05-0.37,1.42,0C18.89,36.479,19,36.729,19,37c0,0.26-0.11,0.52-0.29,0.71C18.52,37.89,18.26,38,18,38"/>
<g></g>
<g></g><g></g><g></g><g></g><g></g><g></g><g></g><g></g><g></g><g></g><g></g><g></g><g></g><g></g><g></g></svg>

</symbol>





<symbol id="icon-twitter"  viewBox="0 0 48 48">
<title>icon-twitter</title>

<svg version="1.1" id="Capa_1" xmlns="http://www.w3.org/2000/svg" xmlns:xlink="http://www.w3.org/1999/xlink" x="0px" y="0px" width="48px" height="48px" viewBox="0 0 449.956 449.956" style="enable-background:new 0 0 449.956 449.956;" xml:space="preserve"><g><path d="M449.956,85.657c-17.702,7.614-35.408,12.369-53.102,14.279c19.985-11.991,33.503-28.931,40.546-50.819c-18.281,10.847-37.787,18.268-58.532,22.267c-18.274-19.414-40.73-29.125-67.383-29.125c-25.502,0-47.246,8.992-65.24,26.98c-17.984,17.987-26.977,39.731-26.977,65.235c0,6.851,0.76,13.896,2.284,21.128c-37.688-1.903-73.042-11.372-106.068-28.407C82.46,110.158,54.433,87.46,31.403,59.101c-8.375,14.272-12.564,29.787-12.564,46.536c0,15.798,3.711,30.456,11.138,43.97c7.422,13.512,17.417,24.455,29.98,32.831c-14.849-0.572-28.743-4.475-41.684-11.708v1.142c0,22.271,6.995,41.824,20.983,58.674c13.99,16.848,31.645,27.453,52.961,31.833c-7.995,2.091-16.086,3.138-24.269,3.138c-5.33,0-11.136-0.475-17.416-1.42c5.9,18.459,16.75,33.633,32.546,45.535c15.799,11.896,33.691,18.028,53.677,18.418c-33.498,26.262-71.66,39.393-114.486,39.393c-8.186,0-15.607-0.373-22.27-1.139c42.827,27.596,90.03,41.394,141.612,41.394c32.738,0,63.478-5.181,92.21-15.557c28.746-10.369,53.297-24.267,73.665-41.686c20.362-17.415,37.925-37.448,52.674-60.097c14.75-22.651,25.738-46.298,32.977-70.946c7.23-24.653,10.848-49.344,10.848-74.092c0-5.33-0.096-9.325-0.287-11.991C421.785,120.202,437.202,104.306,449.956,85.657z"/></g><g></g><g></g><g></g><g></g><g></g><g></g><g></g><g></g><g></g><g></g><g></g><g></g><g></g><g></g><g></g></svg>


</symbol>


<symbol id="icon-tut"  viewBox="0 0 48 48">
<title>icon-tut</title>

<svg version="1.1" id="Capa_1" xmlns="http://www.w3.org/2000/svg" xmlns:xlink="http://www.w3.org/1999/xlink" x="0px" y="0px" width="48px" height="48px" viewBox="0 0 485.213 485.212" style="enable-background:new 0 0 485.213 485.212;" xml:space="preserve"><g><path d="M60.652,75.816V15.163C60.652,6.781,67.433,0,75.817,0c8.38,0,15.161,6.781,15.161,15.163v60.653c0,8.38-6.781,15.161-15.161,15.161C67.433,90.978,60.652,84.196,60.652,75.816z M318.424,90.978c8.378,0,15.163-6.781,15.163-15.161V15.163C333.587,6.781,326.802,0,318.424,0c-8.382,0-15.168,6.781-15.168,15.163v60.653C303.256,84.196,310.042,90.978,318.424,90.978z M485.212,363.906c0,66.996-54.312,121.307-121.303,121.307c-66.986,0-121.302-54.311-121.302-121.307c0-66.986,54.315-121.3,121.302-121.3C430.9,242.606,485.212,296.919,485.212,363.906z M454.89,363.906c0-50.161-40.81-90.976-90.98-90.976c-50.166,0-90.976,40.814-90.976,90.976c0,50.171,40.81,90.98,90.976,90.98C414.08,454.886,454.89,414.077,454.89,363.906z M121.305,181.955H60.652v60.651h60.653V181.955z M60.652,333.584h60.653V272.93H60.652V333.584z M151.629,242.606h60.654v-60.651h-60.654V242.606z M151.629,333.584h60.654V272.93h-60.654V333.584z M30.328,360.891V151.628h333.582v60.653h30.327V94c0-18.421-14.692-33.349-32.843-33.349h-12.647v15.166c0,16.701-13.596,30.325-30.322,30.325c-16.731,0-30.326-13.624-30.326-30.325V60.651H106.14v15.166c0,16.701-13.593,30.325-30.322,30.325c-16.733,0-30.327-13.624-30.327-30.325V60.651H32.859C14.707,60.651,0.001,75.579,0.001,94v266.892c0,18.36,14.706,33.346,32.858,33.346h179.424v-30.331H32.859C31.485,363.906,30.328,362.487,30.328,360.891z M303.256,242.606v-60.651h-60.648v60.651H303.256z M409.399,363.906h-45.49v-45.49c0-8.377-6.781-15.158-15.163-15.158s-15.159,6.781-15.159,15.158v60.658c0,8.378,6.777,15.163,15.159,15.163h60.653c8.382,0,15.163-6.785,15.163-15.163C424.562,370.692,417.781,363.906,409.399,363.906z"/></g><g></g><g></g><g></g><g></g><g></g><g></g><g></g><g></g><g></g><g></g><g></g><g></g><g></g><g></g><g></g></svg>



</symbol>




<symbol id="icon-verify"  viewBox="0 0 48 48">
<title>icon-verify</title>

<svg version="1.1" id="Capa_1" xmlns="http://www.w3.org/2000/svg" xmlns:xlink="http://www.w3.org/1999/xlink" x="0px" y="0px" width="48px" height="48px" viewBox="0 0 509.604 509.604" style="enable-background:new 0 0 509.604 509.604;" xml:space="preserve"><g><g><path d="M34.262,333.282c8.119,6.75,14.793,15.223,14.143,20.988c-0.382,3.443-0.593,6.943-0.593,10.5c0,52.393,41.3,94.861,92.24,94.861c6.292,0,12.431-0.65,18.37-1.885c10.002-2.074,21.812,1.941,28.888,9.793c16.82,18.646,40.803,30.342,67.492,30.342c28.19,0,53.426-13.016,70.342-33.518c6.723-8.146,18.103-11.533,28.22-8.5c8.166,2.447,16.811,3.768,25.751,3.768c50.939,0,92.24-42.477,92.24-94.861c0-5.861-0.535-11.59-1.549-17.145c-1.712-9.371,2.85-21.047,10.471-28.363c18.025-17.289,29.328-41.883,29.328-69.242c0-29.787-13.368-56.323-34.263-73.698c-8.118-6.751-14.793-15.224-14.143-20.99c0.383-3.442,0.593-6.942,0.593-10.5c0-52.393-41.301-94.86-92.24-94.86c-6.292,0-12.431,0.65-18.369,1.884c-10.002,2.075-21.812-1.941-28.889-9.792c-16.82-18.647-40.803-30.342-67.492-30.342c-26.688,0-50.671,11.695-67.492,30.342c-7.076,7.841-18.886,11.867-28.888,9.792c-5.938-1.234-12.078-1.884-18.37-1.884c-50.939,0-92.24,42.477-92.24,94.86c0,5.049,0.392,10.002,1.147,14.832c1.262,8.128-4.447,18.149-12.747,24.681C14.219,201.663,0,228.887,0,259.583C0,289.37,13.368,315.907,34.262,333.282z M131.475,263.016c2.046-3.625,7.268-3.672,12.049,0.479l48.119,33.918c2.61,1.588,5.106,2.4,7.506,2.4c4.963,0,8.893-3.576,12.689-7.02l153.985-154.138c9.629-10.471,18.99-14.162,25.102-10.146c2.82,1.855,4.646,4.647,5.135,7.87c0.583,3.825-0.756,7.946-3.768,11.599l-185.149,224.91c-2.687,3.26-6.11,5.059-9.629,5.059c-4.179,0-7.965-2.516-10.404-6.895l-54.344-97.969C130.519,269.422,130.021,265.618,131.475,263.016z"/></g></g><g></g><g></g><g></g><g></g><g></g><g></g><g></g><g></g><g></g><g></g><g></g><g></g><g></g><g></g><g></g></svg>
</symbol>








<symbol id="icon-arrow_back2"  viewBox="0 0 48 48">
<title>icon-arrow_back2</title>
<svg version="1.1" id="Layer_1" xmlns="http://www.w3.org/2000/svg" xmlns:xlink="http://www.w3.org/1999/xlink" x="0px" y="0px" viewBox="0 0 492 492" style="enable-background:new 0 0 492 492;" xml:space="preserve"><g><g><path d="M464.344,207.418l0.768,0.168H135.888l103.496-103.724c5.068-5.064,7.848-11.924,7.848-19.124c0-7.2-2.78-14.012-7.848-19.088L223.28,49.538c-5.064-5.064-11.812-7.864-19.008-7.864c-7.2,0-13.952,2.78-19.016,7.844L7.844,226.914C2.76,231.998-0.02,238.77,0,245.974c-0.02,7.244,2.76,14.02,7.844,19.096l177.412,177.412c5.064,5.06,11.812,7.844,19.016,7.844c7.196,0,13.944-2.788,19.008-7.844l16.104-16.112c5.068-5.056,7.848-11.808,7.848-19.008c0-7.196-2.78-13.592-7.848-18.652L134.72,284.406h329.992c14.828,0,27.288-12.78,27.288-27.6v-22.788C492,219.198,479.172,207.418,464.344,207.418z"/></g></g><g></g><g></g><g></g><g></g><g></g><g></g><g></g><g></g><g></g><g></g><g></g><g></g><g></g><g></g><g></g></svg>
</symbol>

<symbol id="icon-question"  viewBox="0 0 48 48">
<title>icon-question</title>
<svg version="1.1" id="Capa_1" xmlns="http://www.w3.org/2000/svg" xmlns:xlink="http://www.w3.org/1999/xlink" x="0px" y="0px" width="48px" height="48px" viewBox="0 0 31.357 31.357" style="enable-background:new 0 0 31.357 31.357;" xml:space="preserve"><g><path d="M15.255,0c5.424,0,10.764,2.498,10.764,8.473c0,5.51-6.314,7.629-7.67,9.62c-1.018,1.481-0.678,3.562-3.475,3.562c-1.822,0-2.712-1.482-2.712-2.838c0-5.046,7.414-6.188,7.414-10.343c0-2.287-1.522-3.643-4.066-3.643c-5.424,0-3.306,5.592-7.414,5.592c-1.483,0-2.756-0.89-2.756-2.584C5.339,3.683,10.084,0,15.255,0z M15.044,24.406c1.904,0,3.475,1.566,3.475,3.476c0,1.91-1.568,3.476-3.475,3.476c-1.907,0-3.476-1.564-3.476-3.476C11.568,25.973,13.137,24.406,15.044,24.406z"/></g><g></g><g></g><g></g><g></g><g></g><g></g><g></g><g></g><g></g><g></g><g></g><g></g><g></g><g></g><g></g></svg>

</symbol>



<symbol id="icon-event"  viewBox="0 0 48 48">
<title>icon-event</title>
<svg version="1.1" id="Capa_1" xmlns="http://www.w3.org/2000/svg" xmlns:xlink="http://www.w3.org/1999/xlink" x="0px" y="0px" viewBox="0 0 433.633 433.633" style="enable-background:new 0 0 433.633 433.633;" xml:space="preserve"><g><g><g><path d="M388.749,47.038c-0.886-0.036-1.773-0.042-2.66-0.017h-33.437V18.286C352.653,6.792,341.681,0,330.187,0h-30.824c-11.494,0-19.853,6.792-19.853,18.286V47.02H154.122V18.286C154.122,6.792,145.763,0,134.269,0h-30.825C91.951,0,80.979,6.792,80.979,18.286V47.02H47.543C26.199,46.425,8.414,63.246,7.819,84.589c-0.025,0.886-0.019,1.774,0.017,2.66v301.975c0,22.988,16.718,44.408,39.706,44.408H386.09c22.988,0,39.706-21.42,39.706-44.408V87.249C426.67,65.915,410.083,47.912,388.749,47.038z M299.363,20.898h32.392v57.469h-32.392V20.898z M103.445,20.898h29.78v57.469h-29.78V20.898z M404.898,389.224c0,11.494-7.314,23.51-18.808,23.51H47.543c-11.494,0-18.808-12.016-18.808-23.51V167.184h376.163V389.224z M404.898,87.249v59.037H28.734V87.249c-0.885-9.77,6.318-18.408,16.088-19.293c0.904-0.082,1.814-0.094,2.72-0.037h33.437v11.494c0,11.494,10.971,19.853,22.465,19.853h30.825c10.672,0.293,19.56-8.122,19.853-18.794c0.01-0.353,0.01-0.706,0-1.059V67.918H279.51v11.494c-0.293,10.672,8.122,19.56,18.794,19.853c0.353,0.01,0.706,0.01,1.059,0h30.825c11.494,0,22.465-8.359,22.465-19.853V67.918h33.437c9.791-0.617,18.228,6.82,18.845,16.611C404.992,85.435,404.98,86.345,404.898,87.249z"/><path d="M158.824,309.812l-9.404,52.245c-0.372,2.241-0.004,4.543,1.049,6.556c2.675,5.113,8.989,7.09,14.102,4.415l47.02-24.555l47.02,24.555l4.702,1.045c2.267,0.04,4.48-0.698,6.269-2.09c3.123-2.281,4.73-6.099,4.18-9.927l-9.404-52.245l38.139-36.571c2.729-2.949,3.719-7.109,2.612-10.971c-1.407-3.57-4.577-6.145-8.359-6.792l-52.245-7.837l-23.51-47.543c-1.025-2.116-2.733-3.825-4.849-4.849c-5.194-2.515-11.443-0.344-13.959,4.849l-23.51,47.543l-52.245,7.837c-3.782,0.646-6.952,3.222-8.359,6.792c-1.107,3.862-0.116,8.022,2.612,10.971L158.824,309.812z M187.559,267.494c3.281-0.491,6.061-2.675,7.314-5.747l16.718-33.437l16.718,33.437c1.254,3.072,4.033,5.256,7.314,5.747l37.094,5.224l-26.645,25.6c-2.482,2.457-3.646,5.949-3.135,9.404l6.269,37.094l-32.914-17.763l-4.702-1.045l-4.702,1.045l-32.914,17.763l6.269-37.094c0.512-3.455-0.653-6.947-3.135-9.404l-26.645-25.6L187.559,267.494z"/></g></g></g><g></g><g></g><g></g><g></g><g></g><g></g><g></g><g></g><g></g><g></g><g></g><g></g><g></g><g></g><g></g></svg>


</symbol>






<symbol id="icon-article"  viewBox="0 0 48 48">
<title>icon-article</title>

<svg height="48px" viewBox="1 -17 511.99926 511" width="48px" xmlns="http://www.w3.org/2000/svg"><path d="m504.035156 4.523438c-5.019531-3.777344-11.519531-4.980469-17.554687-3.246094-23.167969 6.652344-52.695313 4.773437-90.078125 2.398437-23.40625-1.488281-49.933594-3.175781-80.402344-3.175781-23.875 0-45.328125 10.527344-60 27.167969-14.671875-16.640625-36.121094-27.167969-60-27.167969-30.464844 0-56.996094 1.6875-80.402344 3.175781-37.382812 2.378907-66.910156 4.257813-90.078125-2.398437-6.035156-1.734375-12.535156-.53125-17.550781 3.246094-5.019531 3.78125-7.96875 9.695312-7.96875 15.976562v331.796875c-.0546875 21.40625 8.242188 41.542969 23.359375 56.699219s35.234375 23.503906 56.640625 23.503906h145c11.046875 0 20-8.953125 20-20s-8.953125-20-20-20h-145c-10.703125 0-20.761719-4.171875-28.320312-11.75-7.558594-7.578125-11.707032-17.648438-11.679688-28.402344v-10.609375c11.777344 6.828125 25.433594 10.761719 40 10.761719h149c4.445312 0 7.488281 2.761719 8.855469 5.34375 3.589843 6.777344 10.519531 10.644531 17.691406 10.644531 3.15625 0 6.359375-.746093 9.339844-2.328125 6.023437-3.1875 9.738281-9.015625 10.492187-15.300781.390625-1.558594.621094-3.179687.621094-4.859375v-265.5c0-22.054688 17.941406-40 40-40 29.195312 0 55.050781 1.644531 77.863281 3.09375 29.832031 1.898438 55.132813 3.507812 78.136719 1.011719v143.894531c0 11.046875 8.953125 20 20 20s20-8.953125 20-20v-168c0-6.28125-2.949219-12.195312-7.964844-15.976562zm-424.035156 307.976562c-22.054688 0-40-17.945312-40-40v-227.894531c23.003906 2.496093 48.300781.886719 78.132812-1.011719 22.816407-1.449219 48.671876-3.09375 77.867188-3.09375 22.054688 0 40 17.945312 40 40v232.492188c-2.296875-.324219-4.632812-.492188-7-.492188zm122-199c0 11.046875-8.953125 20-20 20h-87c-11.046875 0-20-8.953125-20-20s8.953125-20 20-20h87c11.046875 0 20 8.953125 20 20zm-30 80c0 11.046875-8.953125 20-20 20h-57c-11.046875 0-20-8.953125-20-20s8.953125-20 20-20h57c11.046875 0 20 8.953125 20 20zm237.589844 61.558594-109.800782 109.558594c-2.332031 2.328124-4.054687 5.195312-5.011718 8.347656l-23.914063 78.722656c-2.117187 6.980469-.269531 14.5625 4.820313 19.78125 3.816406 3.910156 9 6.035156 14.320312 6.035156 1.777344 0 3.574219-.238281 5.335938-.730468l80.726562-22.359376c3.320313-.921874 6.347656-2.683593 8.789063-5.121093l109.574219-109.363281c23.390624-23.394532 23.390624-61.460938 0-84.855469-23.394532-23.394531-61.460938-23.394531-84.839844-.015625zm-49.273438 162.207031-40.609375 11.25 11.882813-39.125 74.089844-73.925781 28.289062 28.289062zm105.839844-105.636719-3.875 3.867188-28.285156-28.285156 3.863281-3.851563c7.796875-7.800781 20.484375-7.800781 28.28125 0 7.800781 7.796875 7.800781 20.484375.015625 28.269531zm0 0"/></svg>

</symbol>

<symbol id="icon-circle"  viewBox="0 0 48 48">
<title>icon-circle</title>

<svg xmlns="http://www.w3.org/2000/svg" xmlns:xlink="http://www.w3.org/1999/xlink" version="1.1" id="Capa_1" x="0px" y="0px" width="48px" height="48px" viewBox="0 0 436.873 436.873" style="enable-background:new 0 0 436.873 436.873;" xml:space="preserve"><g><g><g><path d="M65.96,284.391C29.595,284.391,0,254.805,0,218.428c0-36.362,29.595-65.945,65.96-65.945s65.96,29.583,65.96,65.945 C131.914,254.805,102.325,284.391,65.96,284.391z"/></g></g></g><g></g><g></g><g></g><g></g><g></g><g></g><g></g><g></g><g></g><g></g><g></g><g></g><g></g><g></g><g></g></svg>

</symbol>


<symbol id="icon-upload"  viewBox="0 0 48 48">
<title>icon-upload</title>
<svg version="1.1" id="Capa_1" xmlns="http://www.w3.org/2000/svg" xmlns:xlink="http://www.w3.org/1999/xlink" x="0px" y="0px" width="52.756px" height="52.757px" viewBox="0 0 52.756 52.757" style="enable-background:new 0 0 52.756 52.757;" xml:space="preserve"><g><g><g><path d="M26.108,0L15.585,10.524c-1.048,1.024-0.815,1.746,0.649,1.746h5.873l-0.001,12.788c0,2.208,1.79,4,4,4l0,0c2.209,0,4-1.791,4-4l0.001-12.789h5.876c1.462,0.001,1.693-0.723,0.646-1.747L26.108,0z"/><path d="M49.027,25.77h-6.049c-0.554,0-1,0.447-1,1v17.939H10.78V26.77c0-0.553-0.447-1-1-1H3.731c-0.553,0-1,0.447-1,1v20.464c0,3.045,2.479,5.522,5.524,5.522h36.248c3.046,0,5.523-2.479,5.523-5.522V26.77C50.027,26.217,49.581,25.77,49.027,25.77z"/></g></g></g><g></g><g></g><g></g><g></g><g></g><g></g><g></g><g></g><g></g><g></g><g></g><g></g><g></g><g></g><g></g></svg>
</symbol>


<symbol id="icon-send_message"  viewBox="0 0 48 48">
<title>icon-send_message</title>
<svg xmlns="http://www.w3.org/2000/svg" xmlns:xlink="http://www.w3.org/1999/xlink" version="1.1" id="Capa_1" x="0px" y="0px" width="48px" height="48px" viewBox="0 0 535.5 535.5" style="enable-background:new 0 0 535.5 535.5;" xml:space="preserve"><g><g id="send"><polygon points="0,497.25 535.5,267.75 0,38.25 0,216.75 382.5,267.75 0,318.75 "/></g></g><g></g><g></g><g></g><g></g><g></g><g></g><g></g><g></g><g></g><g></g><g></g><g></g><g></g><g></g><g></g></svg>

</symbol>


<symbol id="icon-send_message"  viewBox="0 0 48 48">
<title>icon-send_message</title>
<svg xmlns="http://www.w3.org/2000/svg" xmlns:xlink="http://www.w3.org/1999/xlink" version="1.1" id="Capa_1" x="0px" y="0px" width="48px" height="48px" viewBox="0 0 535.5 535.5" style="enable-background:new 0 0 535.5 535.5;" xml:space="preserve"><g><g id="send"><polygon points="0,497.25 535.5,267.75 0,38.25 0,216.75 382.5,267.75 0,318.75 "/></g></g><g></g><g></g><g></g><g></g><g></g><g></g><g></g><g></g><g></g><g></g><g></g><g></g><g></g><g></g><g></g></svg>

</symbol>

<symbol id="icon-arrow_up"  viewBox="0 0 64 64">
<title>icon-arrow_up</title>
<svg width="64" version="1.1" xmlns="http://www.w3.org/2000/svg" height="64" viewBox="0 0 64 64" xmlns:xlink="http://www.w3.org/1999/xlink" enable-background="new 0 0 64 64"> <g> <path fill="#1D1D1B" d="M3.352,48.296l28.56-28.328l28.58,28.347c0.397,0.394,0.917,0.59,1.436,0.59c0.52,0,1.04-0.196,1.436-0.59 c0.793-0.787,0.793-2.062,0-2.849l-29.98-29.735c-0.2-0.2-0.494-0.375-0.757-0.475c-0.75-0.282-1.597-0.107-2.166,0.456 L0.479,45.447c-0.793,0.787-0.793,2.062,0,2.849C1.273,49.082,2.558,49.082,3.352,48.296z"/> </g></svg>
</symbol>


<symbol id="icon-filter"  viewBox="0 0 48 48">
<title>icon-filter</title>
<svg xmlns="http://www.w3.org/2000/svg" xmlns:xlink="http://www.w3.org/1999/xlink" width="48px" height="48px" version="1.1" viewBox="0 0 512 512" enable-background="new 0 0 512 512"> <g> <g> <g> <path d="m191.8,480.6v-174.3l-177.3-263.5c-7.2-8.3-4.1-31.1 16.9-31.8h449.2c12.2,0 27.7,14.4 16.9,31.8l-177.3,263.5v108.2c0,6.4-3,12.4-8.1,16.3l-87.6,66.1c-5,5.6-30.1,9.3-32.7-16.3zm-122-428.8l159.4,236.9c2.3,3.4 3.5,7.3 3.5,11.4v139.6l46.8-35.3v-104.3c0-4.1 1.2-8 3.5-11.4l159.2-236.9h-372.4z"/> </g> </g> </g></svg>
</symbol>




<symbol id="icon-go_back"  viewBox="0 0 48 48">
<title>icon-go_back</title>
<svg xmlns="http://www.w3.org/2000/svg" xmlns:xlink="http://www.w3.org/1999/xlink" version="1.1" id="Capa_1" x="0px" y="0px" viewBox="0 0 49.499 49.499" style="enable-background:new 0 0 49.499 49.499;" xml:space="preserve" width="48px" height="48px"><g><path style="fill:inherit;" d="M8.143,10.804C7.473,11.682,7,11.842,7,11.099V9.751c0-1.933-1.567-3.5-3.5-3.5S0,7.818,0,9.751v12 c0,1.933,1.567,3.5,3.5,3.5h12c1.933,0,3.5-1.567,3.5-3.5s-1.567-3.5-3.5-3.5c0,0-0.579,0-1.294,0s-0.916-0.817-0.31-1.74 c2.752-4.187,7.47-6.795,12.569-6.795c8.29,0,15.034,6.744,15.034,15.034c0,8.289-6.744,15.033-15.034,15.033c-2.209,0-4,1.791-4,4 s1.791,4,4,4c12.701,0.001,23.034-10.332,23.034-23.032c0-12.701-10.333-23.034-23.034-23.034 C19.204,1.716,12.445,5.167,8.143,10.804z"/></g><g></g><g></g><g></g><g></g><g></g><g></g><g></g><g></g><g></g><g></g><g></g><g></g><g></g><g></g><g></g></svg>
</symbol>



<symbol id="icon-back"  viewBox="0 0 48 48">
<title>icon-back</title>
<svg xmlns="http://www.w3.org/2000/svg" xmlns:xlink="http://www.w3.org/1999/xlink" width="48px" height="48px" version="1.1" id="Capa_1" x="0px" y="0px" viewBox="0 0 28 28" style="enable-background:new 0 0 28 28;" xml:space="preserve"><g><path style="fill:inherit;" d="M14,0V8h14v12H14v8L0,14L14,0z"/></g><g></g><g></g><g></g><g></g><g></g><g></g><g></g><g></g><g></g><g></g><g></g><g></g><g></g><g></g><g></g></svg>
</symbol>

<symbol id="icon-rotate-right"  viewBox="0 0 48 48">
<title>icon-rotate_right</title>
<svg xmlns="http://www.w3.org/2000/svg" xmlns:xlink="http://www.w3.org/1999/xlink" version="1.1" id="Capa_1" x="0px" y="0px" width="32.076px" height="32.076px" viewBox="0 0 32.076 32.076" style="enable-background:new 0 0 32.076 32.076;" xml:space="preserve"><g><path d="M32.076,15.138l-7.152,9.341l-7.152-9.341h4.666c-0.451-4.397-4.178-7.842-8.695-7.842C8.922,7.296,5,11.218,5,16.038 c0,4.82,3.922,8.742,8.742,8.742c1.381,0,2.5,1.119,2.5,2.5s-1.119,2.5-2.5,2.5C6.166,29.78,0,23.615,0,16.038 S6.166,2.296,13.742,2.296c7.273,0,13.23,5.686,13.697,12.842H32.076z"/></g><g></g><g></g><g></g><g></g><g></g><g></g><g></g><g></g><g></g><g></g><g></g><g></g><g></g><g></g><g></g></svg>
</symbol>


<symbol id="icon-rotate-left"  viewBox="0 0 48 48">
<title>icon-rotate_left</title>
<svg xmlns="http://www.w3.org/2000/svg" xmlns:xlink="http://www.w3.org/1999/xlink" width="48px" height="48px" version="1.1" id="Capa_1" x="0px" y="0px" viewBox="0 0 476.478 476.478" style="enable-background:new 0 0 476.478 476.478;" xml:space="preserve"><path d="M255.25,17.009c-60.892,0-118.708,25.546-160.024,68.721l-27.289-49.44c-1.808-3.276-5.402-5.136-9.104-4.737 c-3.727,0.415-6.817,2.99-7.88,6.581L0.381,210.286c-0.963,3.227-0.066,6.749,2.331,9.142c2.392,2.395,5.896,3.292,9.137,2.329 l172.138-50.59c3.588-1.047,6.199-4.154,6.598-7.861c0.417-3.721-1.443-7.295-4.737-9.106l-55.722-30.743 c31.927-34.637,77.196-55.393,125.125-55.393c93.83,0,170.177,76.349,170.177,170.178c0,93.831-76.347,170.177-170.177,170.177 c-42.128,0-82.566-15.521-113.842-43.69c-10.453-9.441-26.62-8.609-36.043,1.876c-9.441,10.472-8.591,26.608,1.875,36.049 c40.685,36.644,93.231,56.817,148.01,56.817c121.983,0,221.229-99.248,221.229-221.229 C476.478,116.258,377.233,17.009,255.25,17.009z"/><g></g><g></g><g></g><g></g><g></g><g></g><g></g><g></g><g></g><g></g><g></g><g></g><g></g><g></g><g></g></svg>
</symbol>




</defs>
</svg>


