<?xml version="1.0" encoding="utf-8"?>
<!-- Generator: Adobe Illustrator 22.0.0, SVG Export Plug-In . SVG Version: 6.00 Build 0)  -->
<svg version="1.1" id="Layer_1" xmlns="http://www.w3.org/2000/svg" xmlns:xlink="http://www.w3.org/1999/xlink" x="0px" y="0px"
	 viewBox="0 0 113.4 113.4" style="enable-background:new 0 0 113.4 113.4;" xml:space="preserve">
<style type="text/css">
	.st0{fill:#FFFFFF;}
</style>
<g>
	<path class="st0" d="M57.7,46.7c3,0,5.5-2.6,5.5-5.6c0-3.1-2.5-5.5-5.6-5.5c-3.1,0-5.7,2.6-5.6,5.6C52,44.3,54.6,46.7,57.7,46.7z"
		/>
	<path class="st0" d="M67,49.2c-0.7-0.3-1.5-0.6-2.2-0.7c-4.5-1-9-0.9-13.4-0.3c-1.4,0.2-2.8,0.7-4.2,1.2c-1.6,0.7-2.4,1.9-2.4,3.8
		c0.1,6.8,0,13.7,0,20.5c0,1.8,0.7,2.8,2,2.8c1.3,0,2.1-1,2.1-2.9c0-5.5,0-11.1,0-16.6c0-0.4,0-0.8,0-1.2c0.4,0,0.8,0,1.2,0
		c0,0.4,0,0.8,0,1.1c0,5.7,0,11.4,0,17c0,7.6,0,15.2,0,22.8c0,1.6,0.8,2.7,2.1,3.1c2,0.6,3.7-0.8,3.7-3.1c0-7.2,0-14.3,0-21.5
		c0-0.4,0-0.8,0-1.3c0.9,0,1.8,0,2.7,0c0,0.5,0,0.9,0,1.3c0,6.9,0,13.7,0,20.6c0,0.5,0,1.1,0,1.6c0.1,1.2,1,2.2,2.2,2.5
		c2,0.5,3.6-0.9,3.6-3.2c0-13.2,0-26.3,0-39.5c0-0.5,0-0.9,0-1.4c0.5,0,0.8,0,1.3,0c0,3.3,0,6.5,0,9.7c0,3,0,6,0,8.9c0,1.1,1,2,2,2
		c1.1,0,2-0.9,2.1-2c0-0.3,0-0.6,0-1c0-6.7-0.1-13.5,0-20.2C69.9,51.1,68.8,49.9,67,49.2z"/>
	<path class="st0" d="M76.8,21.5c2.1,5.1,2.5,13.7-1.7,17.9C68,9.2,49.2,4.9,49.2,4.9c2.1,15.6-6.5,30.6-15.8,43.3
		c-0.3-6.2-0.7-10.5-3.6-16.4c-0.7,11.3-8,20.5-10.5,31.7c-3.7,16.8,1.7,44.9,38.7,44.9C112.6,108.5,95.8,35.6,76.8,21.5z
		 M79.5,69.2c-0.8-0.8-1.6-1.7-2.4-2.5c-0.1,2-0.2,4-0.4,5.9c-0.3,2.3-1.4,4.3-3.1,6c-0.3,0.4-0.6,0.9-0.7,1.4
		c-1.2,5.9-2.5,11.7-3.7,17.6c-0.6,3-3.3,5.1-6.2,4.8c-3.1-0.3-5.4-2.7-5.5-5.9c0-4.7,0-9.4,0-14.2c0-0.4,0-0.8,0-1.3
		c-0.1,0-0.2,0-0.3,0c0,0.4-0.1,0.7-0.1,1.1c0,4.7,0,9.4,0,14.2c0,3.3-2.1,5.7-5.3,6.1c-2.9,0.3-5.6-1.7-6.3-4.8
		c-1.2-5.8-2.4-11.7-3.6-17.5c-0.1-0.4-0.3-0.9-0.5-1.2c-2.8-2.8-3.7-6.2-3.5-10c0-0.4,0-0.9,0-1.3c0-0.1-0.1-0.1-0.2-0.3
		c-0.7,0.8-1.4,1.5-2.2,2.3c-1.7,1.7-4.2,1.8-5.9,0.2c-1.7-1.6-1.8-4.3,0-6c4.2-4.3,8.5-8.5,12.8-12.8c2.4-2.4,5.4-3.4,8.5-4.4
		c0.4-0.1,0.7-0.2,1.2-0.4c-2.4-2.2-3.5-4.9-3-8.1c0.3-2.3,1.4-4.1,3.1-5.5c3.3-2.9,8.6-2.6,11.8,0.6c3.6,3.6,3.3,8.5-0.8,13.2
		c1.2,0.4,2.3,0.8,3.5,1.2c2.7,0.7,5,2.1,6.9,4c4,4,8,8,12,12c1.9,1.9,1.9,4.5,0.2,6.2C83.9,71.2,81.3,71.1,79.5,69.2z"/>
</g>
</svg>
