
<svg aria-hidden="true" style="position: absolute; width: 0; height: 0; overflow: hidden;" version="1.1" xmlns="http://www.w3.org/2000/svg" xmlns:xlink="http://www.w3.org/1999/xlink">
<defs>
<symbol id="ico-instagram" viewBox="0 0 32 32">
<title>instagram</title>
<path d="M16 2.881c4.275 0 4.781 0.019 6.462 0.094 1.563 0.069 2.406 0.331 2.969 0.55 0.744 0.288 1.281 0.638 1.837 1.194 0.563 0.563 0.906 1.094 1.2 1.838 0.219 0.563 0.481 1.412 0.55 2.969 0.075 1.688 0.094 2.194 0.094 6.463s-0.019 4.781-0.094 6.463c-0.069 1.563-0.331 2.406-0.55 2.969-0.288 0.744-0.637 1.281-1.194 1.837-0.563 0.563-1.094 0.906-1.837 1.2-0.563 0.219-1.413 0.481-2.969 0.55-1.688 0.075-2.194 0.094-6.463 0.094s-4.781-0.019-6.463-0.094c-1.563-0.069-2.406-0.331-2.969-0.55-0.744-0.288-1.281-0.637-1.838-1.194-0.563-0.563-0.906-1.094-1.2-1.837-0.219-0.563-0.481-1.413-0.55-2.969-0.075-1.688-0.094-2.194-0.094-6.463s0.019-4.781 0.094-6.463c0.069-1.563 0.331-2.406 0.55-2.969 0.288-0.744 0.638-1.281 1.194-1.838 0.563-0.563 1.094-0.906 1.838-1.2 0.563-0.219 1.412-0.481 2.969-0.55 1.681-0.075 2.188-0.094 6.463-0.094zM16 0c-4.344 0-4.887 0.019-6.594 0.094-1.7 0.075-2.869 0.35-3.881 0.744-1.056 0.412-1.95 0.956-2.837 1.85-0.894 0.888-1.438 1.781-1.85 2.831-0.394 1.019-0.669 2.181-0.744 3.881-0.075 1.713-0.094 2.256-0.094 6.6s0.019 4.887 0.094 6.594c0.075 1.7 0.35 2.869 0.744 3.881 0.413 1.056 0.956 1.95 1.85 2.837 0.887 0.887 1.781 1.438 2.831 1.844 1.019 0.394 2.181 0.669 3.881 0.744 1.706 0.075 2.25 0.094 6.594 0.094s4.888-0.019 6.594-0.094c1.7-0.075 2.869-0.35 3.881-0.744 1.050-0.406 1.944-0.956 2.831-1.844s1.438-1.781 1.844-2.831c0.394-1.019 0.669-2.181 0.744-3.881 0.075-1.706 0.094-2.25 0.094-6.594s-0.019-4.887-0.094-6.594c-0.075-1.7-0.35-2.869-0.744-3.881-0.394-1.063-0.938-1.956-1.831-2.844-0.887-0.887-1.781-1.438-2.831-1.844-1.019-0.394-2.181-0.669-3.881-0.744-1.712-0.081-2.256-0.1-6.6-0.1v0z"></path>
<path d="M16 7.781c-4.537 0-8.219 3.681-8.219 8.219s3.681 8.219 8.219 8.219 8.219-3.681 8.219-8.219c0-4.537-3.681-8.219-8.219-8.219zM16 21.331c-2.944 0-5.331-2.387-5.331-5.331s2.387-5.331 5.331-5.331c2.944 0 5.331 2.387 5.331 5.331s-2.387 5.331-5.331 5.331z"></path>
<path d="M26.462 7.456c0 1.060-0.859 1.919-1.919 1.919s-1.919-0.859-1.919-1.919c0-1.060 0.859-1.919 1.919-1.919s1.919 0.859 1.919 1.919z"></path>
</symbol>
<symbol id="ico-youtube" viewBox="0 0 32 32">
<title>youtube</title>
<path d="M31.681 9.6c0 0-0.313-2.206-1.275-3.175-1.219-1.275-2.581-1.281-3.206-1.356-4.475-0.325-11.194-0.325-11.194-0.325h-0.012c0 0-6.719 0-11.194 0.325-0.625 0.075-1.987 0.081-3.206 1.356-0.963 0.969-1.269 3.175-1.269 3.175s-0.319 2.588-0.319 5.181v2.425c0 2.587 0.319 5.181 0.319 5.181s0.313 2.206 1.269 3.175c1.219 1.275 2.819 1.231 3.531 1.369 2.563 0.244 10.881 0.319 10.881 0.319s6.725-0.012 11.2-0.331c0.625-0.075 1.988-0.081 3.206-1.356 0.962-0.969 1.275-3.175 1.275-3.175s0.319-2.587 0.319-5.181v-2.425c-0.006-2.588-0.325-5.181-0.325-5.181zM12.694 20.15v-8.994l8.644 4.513-8.644 4.481z"></path>
</symbol>
<symbol id="ico-twitter" viewBox="0 0 32 32">
<title>twitter</title>
<path d="M32 7.075c-1.175 0.525-2.444 0.875-3.769 1.031 1.356-0.813 2.394-2.1 2.887-3.631-1.269 0.75-2.675 1.3-4.169 1.594-1.2-1.275-2.906-2.069-4.794-2.069-3.625 0-6.563 2.938-6.563 6.563 0 0.512 0.056 1.012 0.169 1.494-5.456-0.275-10.294-2.888-13.531-6.862-0.563 0.969-0.887 2.1-0.887 3.3 0 2.275 1.156 4.287 2.919 5.463-1.075-0.031-2.087-0.331-2.975-0.819 0 0.025 0 0.056 0 0.081 0 3.181 2.263 5.838 5.269 6.437-0.55 0.15-1.131 0.231-1.731 0.231-0.425 0-0.831-0.044-1.237-0.119 0.838 2.606 3.263 4.506 6.131 4.563-2.25 1.762-5.075 2.813-8.156 2.813-0.531 0-1.050-0.031-1.569-0.094 2.913 1.869 6.362 2.95 10.069 2.95 12.075 0 18.681-10.006 18.681-18.681 0-0.287-0.006-0.569-0.019-0.85 1.281-0.919 2.394-2.075 3.275-3.394z"></path>
</symbol>
<symbol id="ico-facebook" viewBox="0 0 32 32">
<title>facebook</title>
<path d="M19 6h5v-6h-5c-3.86 0-7 3.14-7 7v3h-4v6h4v16h6v-16h5l1-6h-6v-3c0-0.542 0.458-1 1-1z"></path>
</symbol>
<symbol id="ico-alert-circle" viewBox="0 0 24 24">
<title>alert-circle</title>
<path d="M12 1c-6.1 0-11 4.9-11 11s4.9 11 11 11 11-4.9 11-11-4.9-11-11-11zM12 21c-5 0-9-4-9-9s4-9 9-9c5 0 9 4 9 9s-4 9-9 9z"></path>
<path d="M12 7c-0.6 0-1 0.4-1 1v4c0 0.6 0.4 1 1 1s1-0.4 1-1v-4c0-0.6-0.4-1-1-1z"></path>
<path d="M11.3 15.3c-0.2 0.2-0.3 0.4-0.3 0.7s0.1 0.5 0.3 0.7c0.2 0.2 0.4 0.3 0.7 0.3s0.5-0.1 0.7-0.3c0.2-0.2 0.3-0.5 0.3-0.7s-0.1-0.5-0.3-0.7c-0.4-0.4-1-0.4-1.4 0z"></path>
</symbol>
<symbol id="ico-alert-triangle" viewBox="0 0 24 24">
<title>alert-triangle</title>
<path d="M23 17.5l-8.4-14.2c-0.4-0.7-1.1-1.2-1.9-1.4s-1.6-0.1-2.3 0.3c-0.4 0.2-0.8 0.6-1 1 0 0 0 0 0 0l-8.4 14.3c-0.8 1.4-0.3 3.3 1.1 4.1 0.4 0.3 0.9 0.4 1.4 0.4h17c0.8 0 1.6-0.3 2.1-0.9 0.6-0.6 0.9-1.3 0.9-2.1-0.1-0.5-0.2-1.1-0.5-1.5zM21.2 19.7c-0.2 0.2-0.5 0.3-0.7 0.3h-17c-0.2 0-0.3 0-0.5-0.1-0.5-0.3-0.6-0.9-0.4-1.4l8.5-14.1c0.1-0.1 0.2-0.3 0.3-0.3 0.5-0.3 1.1-0.1 1.4 0.3l8.5 14.1c0.1 0.1 0.1 0.3 0.1 0.5 0.1 0.3-0.1 0.5-0.2 0.7z"></path>
<path d="M12 8c-0.6 0-1 0.4-1 1v4c0 0.6 0.4 1 1 1s1-0.4 1-1v-4c0-0.6-0.4-1-1-1z"></path>
<path d="M11.3 16.3c-0.2 0.2-0.3 0.4-0.3 0.7s0.1 0.5 0.3 0.7c0.2 0.2 0.4 0.3 0.7 0.3s0.5-0.1 0.7-0.3c0.2-0.2 0.3-0.5 0.3-0.7s-0.1-0.5-0.3-0.7c-0.4-0.4-1-0.4-1.4 0z"></path>
</symbol>
<symbol id="ico-arrow-down" viewBox="0 0 24 24">
<title>arrow-down</title>
<path d="M19.7 11.3c-0.4-0.4-1-0.4-1.4 0l-5.3 5.3v-11.6c0-0.6-0.4-1-1-1s-1 0.4-1 1v11.6l-5.3-5.3c-0.4-0.4-1-0.4-1.4 0s-0.4 1 0 1.4l7 7c0.1 0.1 0.2 0.2 0.3 0.2 0.1 0.1 0.3 0.1 0.4 0.1s0.3 0 0.4-0.1c0.1-0.1 0.2-0.1 0.3-0.2l7-7c0.4-0.4 0.4-1 0-1.4z"></path>
</symbol>
<symbol id="ico-arrow-left" viewBox="0 0 24 24">
<title>arrow-left</title>
<path d="M19 11h-11.6l5.3-5.3c0.4-0.4 0.4-1 0-1.4s-1-0.4-1.4 0l-7 7c-0.1 0.1-0.2 0.2-0.2 0.3-0.1 0.2-0.1 0.5 0 0.8 0.1 0.1 0.1 0.2 0.2 0.3l7 7c0.2 0.2 0.5 0.3 0.7 0.3s0.5-0.1 0.7-0.3c0.4-0.4 0.4-1 0-1.4l-5.3-5.3h11.6c0.6 0 1-0.4 1-1s-0.4-1-1-1z"></path>
</symbol>
<symbol id="ico-arrow-right" viewBox="0 0 24 24">
<title>arrow-right</title>
<path d="M19.9 12.4c0.1-0.2 0.1-0.5 0-0.8-0.1-0.1-0.1-0.2-0.2-0.3l-7-7c-0.4-0.4-1-0.4-1.4 0s-0.4 1 0 1.4l5.3 5.3h-11.6c-0.6 0-1 0.4-1 1s0.4 1 1 1h11.6l-5.3 5.3c-0.4 0.4-0.4 1 0 1.4 0.2 0.2 0.5 0.3 0.7 0.3s0.5-0.1 0.7-0.3l7-7c0.1-0.1 0.2-0.2 0.2-0.3z"></path>
</symbol>
<symbol id="ico-arrow-up" viewBox="0 0 24 24">
<title>arrow-up</title>
<path d="M19.7 11.3l-7-7c-0.1-0.1-0.2-0.2-0.3-0.2-0.2-0.1-0.5-0.1-0.8 0-0.1 0.1-0.2 0.1-0.3 0.2l-7 7c-0.4 0.4-0.4 1 0 1.4s1 0.4 1.4 0l5.3-5.3v11.6c0 0.6 0.4 1 1 1s1-0.4 1-1v-11.6l5.3 5.3c0.2 0.2 0.5 0.3 0.7 0.3s0.5-0.1 0.7-0.3c0.4-0.4 0.4-1 0-1.4z"></path>
</symbol>
<symbol id="ico-award" viewBox="0 0 24 24">
<title>award</title>
<path d="M20 8c0-4.4-3.6-8-8-8s-8 3.6-8 8c0 2.6 1.2 4.9 3.1 6.3l-1.1 8.6c-0.1 0.4 0.1 0.8 0.4 1s0.7 0.2 1.1 0l4.5-2.7 4.5 2.7c0.1 0.1 0.3 0.1 0.5 0.1s0.4-0.1 0.5-0.2 0.5-0.6 0.4-1l-1.1-8.5c2-1.4 3.2-3.7 3.2-6.3zM6 8c0-3.3 2.7-6 6-6s6 2.7 6 6-2.7 6-6 6-6-2.7-6-6zM15.7 21.1l-3.2-1.9c-0.3-0.2-0.7-0.2-1 0l-3.2 1.9 0.7-5.7c0.9 0.4 1.9 0.6 3 0.6s2.1-0.2 3-0.6l0.7 5.7z"></path>
</symbol>
<symbol id="ico-bell" viewBox="0 0 24 24">
<title>bell</title>
<path d="M14.2 20.1c-0.5-0.3-1.1-0.1-1.4 0.4s-0.9 0.6-1.4 0.4c-0.2-0.1-0.3-0.2-0.4-0.4-0.3-0.5-0.9-0.6-1.4-0.4-0.5 0.3-0.6 0.9-0.4 1.4 0.3 0.5 0.6 0.8 1.1 1.1s1 0.4 1.5 0.4c1 0 2-0.5 2.6-1.5 0.5-0.5 0.3-1.1-0.2-1.4z"></path>
<path d="M22 16c-1.1 0-2-0.9-2-2v-5c0-4.4-3.6-8-8-8s-8 3.6-8 8v5c0 1.1-0.9 2-2 2-0.6 0-1 0.4-1 1s0.4 1 1 1h20c0.6 0 1-0.4 1-1s-0.4-1-1-1zM5.5 16c0.3-0.6 0.5-1.3 0.5-2v-5c0-3.3 2.7-6 6-6s6 2.7 6 6v5c0 0.7 0.2 1.4 0.5 2h-13z"></path>
</symbol>
<symbol id="ico-calendar" viewBox="0 0 24 24">
<title>calendar</title>
<path d="M19 3h-2v-1c0-0.6-0.4-1-1-1s-1 0.4-1 1v1h-6v-1c0-0.6-0.4-1-1-1s-1 0.4-1 1v1h-2c-1.7 0-3 1.3-3 3v14c0 1.7 1.3 3 3 3h14c1.7 0 3-1.3 3-3v-14c0-1.7-1.3-3-3-3zM5 5h2v1c0 0.6 0.4 1 1 1s1-0.4 1-1v-1h6v1c0 0.6 0.4 1 1 1s1-0.4 1-1v-1h2c0.6 0 1 0.4 1 1v3h-16v-3c0-0.6 0.4-1 1-1zM19 21h-14c-0.6 0-1-0.4-1-1v-9h16v9c0 0.6-0.4 1-1 1z"></path>
</symbol>
<symbol id="ico-camera" viewBox="0 0 24 24">
<title>camera</title>
<path d="M21 5h-3.5l-1.7-2.6c-0.2-0.2-0.5-0.4-0.8-0.4h-6c-0.3 0-0.6 0.2-0.8 0.4l-1.7 2.6h-3.5c-1.7 0-3 1.3-3 3v11c0 1.7 1.3 3 3 3h18c1.7 0 3-1.3 3-3v-11c0-1.7-1.3-3-3-3zM22 19c0 0.6-0.4 1-1 1h-18c-0.6 0-1-0.4-1-1v-11c0-0.6 0.4-1 1-1h4c0.3 0 0.6-0.2 0.8-0.4l1.7-2.6h4.9l1.7 2.6c0.3 0.2 0.6 0.4 0.9 0.4h4c0.6 0 1 0.4 1 1v11z"></path>
<path d="M12 8c-2.8 0-5 2.2-5 5s2.2 5 5 5 5-2.2 5-5-2.2-5-5-5zM12 16c-1.7 0-3-1.3-3-3s1.3-3 3-3 3 1.3 3 3-1.3 3-3 3z"></path>
</symbol>
<symbol id="ico-check" viewBox="0 0 24 24">
<title>check</title>
<path d="M20.7 5.3c-0.4-0.4-1-0.4-1.4 0l-10.3 10.3-4.3-4.3c-0.4-0.4-1-0.4-1.4 0s-0.4 1 0 1.4l5 5c0.2 0.2 0.4 0.3 0.7 0.3s0.5-0.1 0.7-0.3l11-11c0.4-0.4 0.4-1 0-1.4z"></path>
</symbol>
<symbol id="ico-chevron-down" viewBox="0 0 24 24">
<title>chevron-down</title>
<path d="M18.7 8.3c-0.4-0.4-1-0.4-1.4 0l-5.3 5.3-5.3-5.3c-0.4-0.4-1-0.4-1.4 0s-0.4 1 0 1.4l6 6c0.2 0.2 0.5 0.3 0.7 0.3s0.5-0.1 0.7-0.3l6-6c0.4-0.4 0.4-1 0-1.4z"></path>
</symbol>
<symbol id="ico-chevron-left" viewBox="0 0 24 24">
<title>chevron-left</title>
<path d="M10.4 12l5.3-5.3c0.4-0.4 0.4-1 0-1.4s-1-0.4-1.4 0l-6 6c-0.4 0.4-0.4 1 0 1.4l6 6c0.2 0.2 0.5 0.3 0.7 0.3s0.5-0.1 0.7-0.3c0.4-0.4 0.4-1 0-1.4l-5.3-5.3z"></path>
</symbol>
<symbol id="ico-chevron-right" viewBox="0 0 24 24">
<title>chevron-right</title>
<path d="M15.7 11.3l-6-6c-0.4-0.4-1-0.4-1.4 0s-0.4 1 0 1.4l5.3 5.3-5.3 5.3c-0.4 0.4-0.4 1 0 1.4 0.2 0.2 0.4 0.3 0.7 0.3s0.5-0.1 0.7-0.3l6-6c0.4-0.4 0.4-1 0-1.4z"></path>
</symbol>
<symbol id="ico-chevron-up" viewBox="0 0 24 24">
<title>chevron-up</title>
<path d="M18.7 14.3l-6-6c-0.4-0.4-1-0.4-1.4 0l-6 6c-0.4 0.4-0.4 1 0 1.4s1 0.4 1.4 0l5.3-5.3 5.3 5.3c0.2 0.2 0.5 0.3 0.7 0.3s0.5-0.1 0.7-0.3c0.4-0.4 0.4-1 0-1.4z"></path>
</symbol>
<symbol id="ico-chevrons-left" viewBox="0 0 24 24">
<title>chevrons-left</title>
<path d="M7.4 12l4.3-4.3c0.4-0.4 0.4-1 0-1.4s-1-0.4-1.4 0l-5 5c-0.4 0.4-0.4 1 0 1.4l5 5c0.2 0.2 0.5 0.3 0.7 0.3s0.5-0.1 0.7-0.3c0.4-0.4 0.4-1 0-1.4l-4.3-4.3z"></path>
<path d="M14.4 12l4.3-4.3c0.4-0.4 0.4-1 0-1.4s-1-0.4-1.4 0l-5 5c-0.4 0.4-0.4 1 0 1.4l5 5c0.2 0.2 0.5 0.3 0.7 0.3s0.5-0.1 0.7-0.3c0.4-0.4 0.4-1 0-1.4l-4.3-4.3z"></path>
</symbol>
<symbol id="ico-chevrons-right" viewBox="0 0 24 24">
<title>chevrons-right</title>
<path d="M18.7 11.3l-5-5c-0.4-0.4-1-0.4-1.4 0s-0.4 1 0 1.4l4.3 4.3-4.3 4.3c-0.4 0.4-0.4 1 0 1.4 0.2 0.2 0.5 0.3 0.7 0.3s0.5-0.1 0.7-0.3l5-5c0.4-0.4 0.4-1 0-1.4z"></path>
<path d="M11.7 11.3l-5-5c-0.4-0.4-1-0.4-1.4 0s-0.4 1 0 1.4l4.3 4.3-4.3 4.3c-0.4 0.4-0.4 1 0 1.4 0.2 0.2 0.4 0.3 0.7 0.3s0.5-0.1 0.7-0.3l5-5c0.4-0.4 0.4-1 0-1.4z"></path>
</symbol>
<symbol id="ico-circle" viewBox="0 0 24 24">
<title>circle</title>
<path d="M12 1c-6.1 0-11 4.9-11 11s4.9 11 11 11 11-4.9 11-11-4.9-11-11-11zM12 21c-5 0-9-4-9-9s4-9 9-9c5 0 9 4 9 9s-4 9-9 9z"></path>
</symbol>
<symbol id="ico-clock" viewBox="0 0 24 24">
<title>clock</title>
<path d="M12 1c-6.1 0-11 4.9-11 11s4.9 11 11 11 11-4.9 11-11-4.9-11-11-11zM12 21c-5 0-9-4-9-9s4-9 9-9c5 0 9 4 9 9s-4 9-9 9z"></path>
<path d="M16.4 13.1l-3.4-1.7v-5.4c0-0.6-0.4-1-1-1s-1 0.4-1 1v6c0 0.4 0.2 0.7 0.6 0.9l4 2c0.1 0.1 0.2 0.1 0.4 0.1 0.4 0 0.7-0.2 0.9-0.6s0-1-0.5-1.3z"></path>
</symbol>
<symbol id="ico-credit-card" viewBox="0 0 24 24">
<title>credit-card</title>
<path d="M21 3h-18c-1.7 0-3 1.3-3 3v12c0 1.7 1.3 3 3 3h18c1.7 0 3-1.3 3-3v-12c0-1.7-1.3-3-3-3zM3 5h18c0.6 0 1 0.4 1 1v3h-20v-3c0-0.6 0.4-1 1-1zM21 19h-18c-0.6 0-1-0.4-1-1v-7h20v7c0 0.6-0.4 1-1 1z"></path>
</symbol>
<symbol id="ico-download" viewBox="0 0 24 24">
<title>download</title>
<path d="M21 14c-0.6 0-1 0.4-1 1v4c0 0.6-0.4 1-1 1h-14c-0.6 0-1-0.4-1-1v-4c0-0.6-0.4-1-1-1s-1 0.4-1 1v4c0 1.7 1.3 3 3 3h14c1.7 0 3-1.3 3-3v-4c0-0.6-0.4-1-1-1z"></path>
<path d="M11.3 15.7c0.1 0.1 0.2 0.2 0.3 0.2 0.1 0.1 0.3 0.1 0.4 0.1s0.3 0 0.4-0.1c0.1-0.1 0.2-0.1 0.3-0.2l5-5c0.4-0.4 0.4-1 0-1.4s-1-0.4-1.4 0l-3.3 3.3v-9.6c0-0.6-0.4-1-1-1s-1 0.4-1 1v9.6l-3.3-3.3c-0.4-0.4-1-0.4-1.4 0s-0.4 1 0 1.4l5 5z"></path>
</symbol>
<symbol id="ico-edit-2" viewBox="0 0 24 24">
<title>edit-2</title>
<path d="M21.7 7.3l-5-5c-0.4-0.4-1-0.4-1.4 0l-13 13c-0.2 0.2-0.3 0.4-0.3 0.7v5c0 0.6 0.4 1 1 1h5c0.3 0 0.5-0.1 0.7-0.3l13-13c0.4-0.4 0.4-1 0-1.4zM7.6 20h-3.6v-3.6l12-12 3.6 3.6-12 12z"></path>
</symbol>
<symbol id="ico-external-link" viewBox="0 0 24 24">
<title>external-link</title>
<path d="M18 12c-0.6 0-1 0.4-1 1v6c0 0.6-0.4 1-1 1h-11c-0.6 0-1-0.4-1-1v-11c0-0.6 0.4-1 1-1h6c0.6 0 1-0.4 1-1s-0.4-1-1-1h-6c-1.7 0-3 1.3-3 3v11c0 1.7 1.3 3 3 3h11c1.7 0 3-1.3 3-3v-6c0-0.6-0.4-1-1-1z"></path>
<path d="M21.9 2.6c-0.1-0.2-0.3-0.4-0.5-0.5-0.1-0.1-0.3-0.1-0.4-0.1h-6c-0.6 0-1 0.4-1 1s0.4 1 1 1h3.6l-9.3 9.3c-0.4 0.4-0.4 1 0 1.4 0.2 0.2 0.4 0.3 0.7 0.3s0.5-0.1 0.7-0.3l9.3-9.3v3.6c0 0.6 0.4 1 1 1s1-0.4 1-1v-6c0-0.1 0-0.3-0.1-0.4z"></path>
</symbol>
<symbol id="ico-eye" viewBox="0 0 24 24">
<title>eye</title>
<path d="M23.9 11.6c-0.2-0.4-4.4-8.6-11.9-8.6s-11.7 8.2-11.9 8.6c-0.1 0.3-0.1 0.6 0 0.9 0.2 0.3 4.4 8.5 11.9 8.5s11.7-8.2 11.9-8.6c0.1-0.2 0.1-0.6 0-0.8zM12 19c-5.4 0-8.9-5.4-9.9-7 0.9-1.6 4.5-7 9.9-7s8.9 5.4 9.9 7c-1 1.6-4.5 7-9.9 7z"></path>
<path d="M12 8c-2.2 0-4 1.8-4 4s1.8 4 4 4c2.2 0 4-1.8 4-4s-1.8-4-4-4zM12 14c-1.1 0-2-0.9-2-2s0.9-2 2-2c1.1 0 2 0.9 2 2s-0.9 2-2 2z"></path>
</symbol>
<symbol id="ico-eye-off" viewBox="0 0 24 24">
<title>eye-off</title>
<path d="M10.1 5.2c0.6-0.1 1.3-0.2 1.9-0.2 5.4 0 8.9 5.4 9.9 7-0.5 0.9-1.1 1.8-1.8 2.5-0.4 0.4-0.3 1.1 0.1 1.4 0.2 0.2 0.4 0.2 0.6 0.2 0.3 0 0.6-0.1 0.8-0.4 0.9-1 1.6-2.2 2.3-3.4 0.2-0.3 0.2-0.6 0-0.9-0.2-0.2-4.4-8.4-11.9-8.4-0.8 0-1.6 0.1-2.3 0.3-0.6 0.1-0.9 0.6-0.8 1.2 0.2 0.5 0.7 0.8 1.2 0.7z"></path>
<path d="M23.7 22.3l-22-22c-0.4-0.4-1-0.4-1.4 0s-0.4 1 0 1.4l4.3 4.3c-1.8 1.6-3.3 3.4-4.5 5.5-0.2 0.3-0.2 0.6 0 0.9 0.2 0.4 4.4 8.6 11.9 8.6 2.1 0 4.1-0.6 5.8-1.8l4.5 4.5c0.2 0.2 0.5 0.3 0.7 0.3s0.5-0.1 0.7-0.3c0.4-0.4 0.4-1 0-1.4zM10 11.4l2.5 2.5c-0.2 0.1-0.4 0.1-0.6 0.1-0.5 0-1-0.2-1.4-0.5-0.4-0.4-0.6-0.9-0.6-1.4 0-0.2 0.1-0.4 0.1-0.7zM12 19c-5.4 0-8.9-5.4-9.9-7 1-1.8 2.3-3.3 3.9-4.6l2.5 2.6c-0.4 0.7-0.6 1.5-0.6 2.3 0 1.1 0.5 2.1 1.3 2.8 0.7 0.7 1.7 1.1 2.7 1.1 0 0 0.1 0 0.1 0 0.7 0 1.4-0.3 2-0.6l2.3 2.3c-1.3 0.7-2.8 1.1-4.3 1.1z"></path>
</symbol>
<symbol id="ico-file-text" viewBox="0 0 24 24">
<title>file-text</title>
<path d="M20.9 7.6c-0.1-0.1-0.1-0.2-0.2-0.3l-6-6c-0.1-0.1-0.2-0.2-0.3-0.2-0.1-0.1-0.3-0.1-0.4-0.1h-8c-1.7 0-3 1.3-3 3v16c0 1.7 1.3 3 3 3h12c1.7 0 3-1.3 3-3v-12c0-0.1 0-0.3-0.1-0.4zM15 4.4l2.6 2.6h-2.6v-2.6zM18 21h-12c-0.6 0-1-0.4-1-1v-16c0-0.6 0.4-1 1-1h7v5c0 0.6 0.4 1 1 1h5v11c0 0.6-0.4 1-1 1z"></path>
<path d="M16 12h-8c-0.6 0-1 0.4-1 1s0.4 1 1 1h8c0.6 0 1-0.4 1-1s-0.4-1-1-1z"></path>
<path d="M16 16h-8c-0.6 0-1 0.4-1 1s0.4 1 1 1h8c0.6 0 1-0.4 1-1s-0.4-1-1-1z"></path>
<path d="M8 10h2c0.6 0 1-0.4 1-1s-0.4-1-1-1h-2c-0.6 0-1 0.4-1 1s0.4 1 1 1z"></path>
</symbol>
<symbol id="ico-filter" viewBox="0 0 24 24">
<title>filter</title>
<path d="M22.9 2.6c-0.2-0.4-0.5-0.6-0.9-0.6h-20c-0.4 0-0.7 0.2-0.9 0.6-0.2 0.3-0.1 0.7 0.1 1l7.8 9.2v6.2c0 0.4 0.2 0.7 0.6 0.9l4 2c0.1 0.1 0.2 0.1 0.4 0.1s0.4 0 0.5-0.1c0.3-0.2 0.5-0.5 0.5-0.9v-8.2l7.8-9.2c0.2-0.3 0.3-0.7 0.1-1zM13.2 11.8c-0.1 0.2-0.2 0.4-0.2 0.7v6.9l-2-1v-5.9c0-0.2-0.1-0.5-0.2-0.6l-6.6-7.9h15.7l-6.7 7.8z"></path>
</symbol>
<symbol id="ico-gift" viewBox="0 0 24 24">
<title>gift</title>
<path d="M22 6h-2.4c0.3-0.5 0.4-1 0.4-1.5 0-1.9-1.6-3.5-3.5-3.5-2.3 0-3.7 1.6-4.5 3.1-0.8-1.5-2.2-3.1-4.5-3.1-1.9 0-3.5 1.6-3.5 3.5 0 0.5 0.1 1 0.4 1.5h-2.4c-0.6 0-1 0.4-1 1v5c0 0.6 0.4 1 1 1h1v9c0 0.6 0.4 1 1 1h16c0.6 0 1-0.4 1-1v-9h1c0.6 0 1-0.4 1-1v-5c0-0.6-0.4-1-1-1zM16.5 3c0.8 0 1.5 0.7 1.5 1.5s-0.7 1.5-1.5 1.5h-3.2c0.5-1.2 1.5-3 3.2-3zM6 4.5c0-0.8 0.7-1.5 1.5-1.5 1.7 0 2.7 1.8 3.2 3h-3.2c-0.8 0-1.5-0.7-1.5-1.5zM3 8h8v3h-8v-3zM5 13h6v8h-6v-8zM19 21h-6v-8h6v8zM21 11h-8v-3h8v3z"></path>
</symbol>
<symbol id="ico-globe" viewBox="0 0 24 24">
<title>globe</title>
<path d="M12 1c-6.1 0-11 4.9-11 11s4.9 11 11 11 11-4.9 11-11-4.9-11-11-11zM20.9 11h-4c-0.2-2.8-1.1-5.4-2.7-7.7 3.6 0.9 6.3 4 6.7 7.7zM9.1 13h5.9c-0.3 2.7-1.3 5.3-2.9 7.4-1.8-2.1-2.8-4.7-3-7.4zM9.1 11c0.3-2.7 1.3-5.3 2.9-7.4 1.7 2.2 2.7 4.8 2.9 7.4h-5.8zM9.7 3.3c-1.5 2.3-2.4 4.9-2.6 7.7h-4c0.4-3.7 3.1-6.8 6.6-7.7zM3.1 13h4c0.2 2.8 1.1 5.4 2.7 7.7-3.6-0.9-6.3-4-6.7-7.7zM14.3 20.7c1.5-2.3 2.4-4.9 2.7-7.7h4c-0.5 3.7-3.2 6.8-6.7 7.7z"></path>
</symbol>
<symbol id="ico-heart" viewBox="0 0 24 24">
<title>heart</title>
<path d="M21.5 3.9v0c-1.2-1.2-2.8-1.9-4.5-1.9v0c-1.7 0-3.4 0.7-4.6 1.9 0 0 0 0 0 0l-0.4 0.4-0.4-0.4c-1.2-1.2-2.8-1.9-4.6-1.9-1.7 0-3.3 0.7-4.5 1.9s-2 2.9-2 4.6 0.7 3.4 1.9 4.6l8.8 8.8c0.2 0.2 0.4 0.3 0.7 0.3s0.5-0.1 0.7-0.3l8.8-8.8c2.7-2.5 2.7-6.7 0.1-9.2zM20.1 11.7l-8.1 8.1-8.1-8.1c-1.8-1.8-1.8-4.6 0-6.4 0.8-0.9 2-1.3 3.1-1.3 1.2 0 2.3 0.4 3.2 1.3l1.1 1.1c0.4 0.4 1 0.4 1.4 0l1-1.1c0 0 0 0 0 0 0.9-0.8 2-1.3 3.3-1.3 0 0 0 0 0 0 1.2 0 2.3 0.5 3.2 1.3v0c0.8 0.9 1.3 2 1.3 3.2s-0.5 2.3-1.4 3.2z"></path>
</symbol>
<symbol id="ico-help-circle" viewBox="0 0 24 24">
<title>help-circle</title>
<path d="M12 1c-6.1 0-11 4.9-11 11s4.9 11 11 11 11-4.9 11-11-4.9-11-11-11zM12 21c-5 0-9-4-9-9s4-9 9-9c5 0 9 4 9 9s-4 9-9 9z"></path>
<path d="M13.2 6.2c-2.1-0.7-4.4 0.4-5.1 2.4-0.1 0.6 0.1 1.2 0.7 1.3 0.5 0.2 1.1-0.1 1.3-0.6 0.4-1 1.5-1.6 2.6-1.2 0.8 0.3 1.3 1 1.3 1.9 0 1-1.7 1.8-2.3 2.1-0.5 0.2-0.8 0.7-0.6 1.3 0.1 0.4 0.5 0.7 0.9 0.7 0.1 0 0.2 0 0.3-0.1 0.4-0.1 3.7-1.3 3.7-3.9-0.1-1.8-1.2-3.3-2.8-3.9z"></path>
<path d="M11.3 16.3c-0.2 0.2-0.3 0.4-0.3 0.7s0.1 0.5 0.3 0.7c0.2 0.2 0.4 0.3 0.7 0.3s0.5-0.1 0.7-0.3c0.2-0.2 0.3-0.5 0.3-0.7s-0.1-0.5-0.3-0.7c-0.4-0.4-1-0.4-1.4 0z"></path>
</symbol>
<symbol id="ico-home" viewBox="0 0 24 24">
<title>home</title>
<path d="M21.6 8.2l-9-7c-0.4-0.3-0.9-0.3-1.2 0l-9 7c-0.3 0.2-0.4 0.5-0.4 0.8v11c0 1.7 1.3 3 3 3h14c1.7 0 3-1.3 3-3v-11c0-0.3-0.1-0.6-0.4-0.8zM14 21h-4v-8h4v8zM20 20c0 0.6-0.4 1-1 1h-3v-9c0-0.6-0.4-1-1-1h-6c-0.6 0-1 0.4-1 1v9h-3c-0.6 0-1-0.4-1-1v-10.5l8-6.2 8 6.2v10.5z"></path>
</symbol>
<symbol id="ico-image" viewBox="0 0 24 24">
<title>image</title>
<path d="M19 2h-14c-1.7 0-3 1.3-3 3v14c0 1.7 1.3 3 3 3h14c1.7 0 3-1.3 3-3v-14c0-1.7-1.3-3-3-3zM4 5c0-0.6 0.4-1 1-1h14c0.6 0 1 0.4 1 1v7.6l-3.3-3.3c-0.4-0.4-1-0.4-1.4 0l-10.6 10.6c-0.4-0.1-0.7-0.5-0.7-0.9v-14zM19 20h-11.6l8.6-8.6 4 4v3.6c0 0.6-0.4 1-1 1z"></path>
<path d="M8.5 11c1.4 0 2.5-1.1 2.5-2.5s-1.1-2.5-2.5-2.5-2.5 1.1-2.5 2.5 1.1 2.5 2.5 2.5zM8.5 8c0.3 0 0.5 0.2 0.5 0.5s-0.2 0.5-0.5 0.5-0.5-0.2-0.5-0.5 0.2-0.5 0.5-0.5z"></path>
</symbol>
<symbol id="ico-link" viewBox="0 0 24 24">
<title>link</title>
<path d="M21.1 2.8c-2.3-2.3-6-2.3-8.3 0l-1.8 1.7c-0.4 0.4-0.4 1 0 1.4s1 0.4 1.4 0l1.7-1.7c1.6-1.5 4-1.5 5.6 0s1.6 4.1 0.1 5.6l-3 3c-0.1 0.1-0.3 0.3-0.4 0.4-1.8 1.3-4.3 1-5.6-0.8-0.3-0.4-1-0.5-1.4-0.2s-0.5 1-0.2 1.4c1.2 1.6 3 2.4 4.8 2.4 1.2 0 2.5-0.4 3.6-1.2 0.2-0.2 0.4-0.4 0.7-0.6l3-3c2.3-2.3 2.2-6.2-0.2-8.4z"></path>
<path d="M11.5 18.1l-1.7 1.7c-1.6 1.5-4 1.5-5.6 0s-1.6-4.1-0.1-5.6l3-3c0.1-0.1 0.3-0.3 0.4-0.4 0.9-0.6 1.9-0.9 3-0.8 1.1 0.2 2 0.7 2.6 1.6 0.3 0.4 1 0.5 1.4 0.2s0.5-1 0.2-1.4c-1-1.3-2.4-2.1-3.9-2.3-1.5-0.3-3.1 0.1-4.4 1.1-0.2 0.2-0.4 0.4-0.6 0.6l-3 3c-2.3 2.4-2.2 6.2 0.1 8.5 1.2 1.1 2.7 1.7 4.2 1.7s3-0.6 4.2-1.7l1.7-1.7c0.4-0.4 0.4-1 0-1.4s-1.1-0.5-1.5-0.1z"></path>
</symbol>
<symbol id="ico-lock" viewBox="0 0 24 24">
<title>lock</title>
<path d="M19 10h-1v-3c0-3.3-2.7-6-6-6s-6 2.7-6 6v3h-1c-1.7 0-3 1.3-3 3v7c0 1.7 1.3 3 3 3h14c1.7 0 3-1.3 3-3v-7c0-1.7-1.3-3-3-3zM8 7c0-2.2 1.8-4 4-4s4 1.8 4 4v3h-8v-3zM20 20c0 0.6-0.4 1-1 1h-14c-0.6 0-1-0.4-1-1v-7c0-0.6 0.4-1 1-1h14c0.6 0 1 0.4 1 1v7z"></path>
</symbol>
<symbol id="ico-log-in" viewBox="0 0 24 24">
<title>log-in</title>
<path d="M19 2h-4c-0.6 0-1 0.4-1 1s0.4 1 1 1h4c0.6 0 1 0.4 1 1v14c0 0.6-0.4 1-1 1h-4c-0.6 0-1 0.4-1 1s0.4 1 1 1h4c1.7 0 3-1.3 3-3v-14c0-1.7-1.3-3-3-3z"></path>
<path d="M15.9 12.4c0.1-0.2 0.1-0.5 0-0.8-0.1-0.1-0.1-0.2-0.2-0.3l-5-5c-0.4-0.4-1-0.4-1.4 0s-0.4 1 0 1.4l3.3 3.3h-9.6c-0.6 0-1 0.4-1 1s0.4 1 1 1h9.6l-3.3 3.3c-0.4 0.4-0.4 1 0 1.4 0.2 0.2 0.4 0.3 0.7 0.3s0.5-0.1 0.7-0.3l5-5c0.1-0.1 0.2-0.2 0.2-0.3z"></path>
</symbol>
<symbol id="ico-log-out" viewBox="0 0 24 24">
<title>log-out</title>
<path d="M9 20h-4c-0.6 0-1-0.4-1-1v-14c0-0.6 0.4-1 1-1h4c0.6 0 1-0.4 1-1s-0.4-1-1-1h-4c-1.7 0-3 1.3-3 3v14c0 1.7 1.3 3 3 3h4c0.6 0 1-0.4 1-1s-0.4-1-1-1z"></path>
<path d="M21.9 12.4c0.1-0.2 0.1-0.5 0-0.8-0.1-0.1-0.1-0.2-0.2-0.3l-5-5c-0.4-0.4-1-0.4-1.4 0s-0.4 1 0 1.4l3.3 3.3h-9.6c-0.6 0-1 0.4-1 1s0.4 1 1 1h9.6l-3.3 3.3c-0.4 0.4-0.4 1 0 1.4 0.2 0.2 0.5 0.3 0.7 0.3s0.5-0.1 0.7-0.3l5-5c0.1-0.1 0.2-0.2 0.2-0.3z"></path>
</symbol>
<symbol id="ico-mail" viewBox="0 0 24 24">
<title>mail</title>
<path d="M20 3h-16c-1.7 0-3 1.3-3 3v12c0 1.7 1.3 3 3 3h16c1.7 0 3-1.3 3-3v-12c0-1.7-1.3-3-3-3zM4 5h16c0.4 0 0.7 0.2 0.9 0.6l-8.9 6.2-8.9-6.2c0.2-0.4 0.5-0.6 0.9-0.6zM20 19h-16c-0.6 0-1-0.4-1-1v-10.1l8.4 5.9c0.2 0.1 0.4 0.2 0.6 0.2s0.4-0.1 0.6-0.2l8.4-5.9v10.1c0 0.6-0.4 1-1 1z"></path>
</symbol>
<symbol id="ico-map-pin" viewBox="0 0 24 24">
<title>map-pin</title>
<path d="M12 0c-5.5 0-10 4.5-10 10 0 7.4 9.1 13.6 9.4 13.8 0.2 0.1 0.4 0.2 0.6 0.2s0.4-0.1 0.6-0.2c0.3-0.2 9.4-6.4 9.4-13.8 0-5.5-4.5-10-10-10zM12 21.8c-1.9-1.4-8-6.4-8-11.8 0-4.4 3.6-8 8-8s8 3.6 8 8c0 5.4-6.1 10.4-8 11.8z"></path>
<path d="M12 6c-2.2 0-4 1.8-4 4s1.8 4 4 4c2.2 0 4-1.8 4-4s-1.8-4-4-4zM12 12c-1.1 0-2-0.9-2-2s0.9-2 2-2c1.1 0 2 0.9 2 2s-0.9 2-2 2z"></path>
</symbol>
<symbol id="ico-maximize-2" viewBox="0 0 24 24">
<title>maximize-2</title>
<path d="M21.9 2.6c-0.1-0.2-0.3-0.4-0.5-0.5-0.1-0.1-0.3-0.1-0.4-0.1h-6c-0.6 0-1 0.4-1 1s0.4 1 1 1h3.6l-5.3 5.3c-0.4 0.4-0.4 1 0 1.4 0.2 0.2 0.5 0.3 0.7 0.3s0.5-0.1 0.7-0.3l5.3-5.3v3.6c0 0.6 0.4 1 1 1s1-0.4 1-1v-6c0-0.1 0-0.3-0.1-0.4z"></path>
<path d="M9.3 13.3l-5.3 5.3v-3.6c0-0.6-0.4-1-1-1s-1 0.4-1 1v6c0 0.1 0 0.3 0.1 0.4 0.1 0.2 0.3 0.4 0.5 0.5 0.1 0.1 0.3 0.1 0.4 0.1h6c0.6 0 1-0.4 1-1s-0.4-1-1-1h-3.6l5.3-5.3c0.4-0.4 0.4-1 0-1.4s-1-0.4-1.4 0z"></path>
</symbol>
<symbol id="ico-menu" viewBox="0 0 24 24">
<title>menu</title>
<path d="M21 11h-18c-0.6 0-1 0.4-1 1s0.4 1 1 1h18c0.6 0 1-0.4 1-1s-0.4-1-1-1z"></path>
<path d="M3 7h18c0.6 0 1-0.4 1-1s-0.4-1-1-1h-18c-0.6 0-1 0.4-1 1s0.4 1 1 1z"></path>
<path d="M21 17h-18c-0.6 0-1 0.4-1 1s0.4 1 1 1h18c0.6 0 1-0.4 1-1s-0.4-1-1-1z"></path>
</symbol>
<symbol id="ico-message-square" viewBox="0 0 24 24">
<title>message-square</title>
<path d="M19 2h-14c-1.7 0-3 1.3-3 3v16c0 0.4 0.2 0.8 0.6 0.9 0.1 0.1 0.3 0.1 0.4 0.1 0.3 0 0.5-0.1 0.7-0.3l3.7-3.7h11.6c1.7 0 3-1.3 3-3v-10c0-1.7-1.3-3-3-3zM20 15c0 0.6-0.4 1-1 1h-12c-0.3 0-0.5 0.1-0.7 0.3l-2.3 2.3v-13.6c0-0.6 0.4-1 1-1h14c0.6 0 1 0.4 1 1v10z"></path>
</symbol>
<symbol id="ico-minimize-2" viewBox="0 0 24 24">
<title>minimize-2</title>
<path d="M10.4 13.1c-0.1-0.1-0.3-0.1-0.4-0.1h-6c-0.6 0-1 0.4-1 1s0.4 1 1 1h3.6l-5.3 5.3c-0.4 0.4-0.4 1 0 1.4 0.2 0.2 0.4 0.3 0.7 0.3s0.5-0.1 0.7-0.3l5.3-5.3v3.6c0 0.6 0.4 1 1 1s1-0.4 1-1v-6c0-0.1 0-0.3-0.1-0.4-0.1-0.2-0.3-0.4-0.5-0.5z"></path>
<path d="M21.7 2.3c-0.4-0.4-1-0.4-1.4 0l-5.3 5.3v-3.6c0-0.6-0.4-1-1-1s-1 0.4-1 1v6c0 0.1 0 0.3 0.1 0.4 0.1 0.2 0.3 0.4 0.5 0.5 0.1 0.1 0.3 0.1 0.4 0.1h6c0.6 0 1-0.4 1-1s-0.4-1-1-1h-3.6l5.3-5.3c0.4-0.4 0.4-1 0-1.4z"></path>
</symbol>
<symbol id="ico-minus-circle" viewBox="0 0 24 24">
<title>minus-circle</title>
<path d="M12 1c-6.1 0-11 4.9-11 11s4.9 11 11 11 11-4.9 11-11-4.9-11-11-11zM12 21c-5 0-9-4-9-9s4-9 9-9c5 0 9 4 9 9s-4 9-9 9z"></path>
<path d="M16 11h-8c-0.6 0-1 0.4-1 1s0.4 1 1 1h8c0.6 0 1-0.4 1-1s-0.4-1-1-1z"></path>
</symbol>
<symbol id="ico-monitor" viewBox="0 0 24 24">
<title>monitor</title>
<path d="M20 2h-16c-1.7 0-3 1.3-3 3v10c0 1.7 1.3 3 3 3h7v2h-3c-0.6 0-1 0.4-1 1s0.4 1 1 1h8c0.6 0 1-0.4 1-1s-0.4-1-1-1h-3v-2h7c1.7 0 3-1.3 3-3v-10c0-1.7-1.3-3-3-3zM21 15c0 0.6-0.4 1-1 1h-16c-0.6 0-1-0.4-1-1v-10c0-0.6 0.4-1 1-1h16c0.6 0 1 0.4 1 1v10z"></path>
</symbol>
<symbol id="ico-pause-circle" viewBox="0 0 24 24">
<title>pause-circle</title>
<path d="M12 1c-6.1 0-11 4.9-11 11s4.9 11 11 11 11-4.9 11-11-4.9-11-11-11zM12 21c-5 0-9-4-9-9s4-9 9-9c5 0 9 4 9 9s-4 9-9 9z"></path>
<path d="M10 8c-0.6 0-1 0.4-1 1v6c0 0.6 0.4 1 1 1s1-0.4 1-1v-6c0-0.6-0.4-1-1-1z"></path>
<path d="M14 8c-0.6 0-1 0.4-1 1v6c0 0.6 0.4 1 1 1s1-0.4 1-1v-6c0-0.6-0.4-1-1-1z"></path>
</symbol>
<symbol id="ico-phone" viewBox="0 0 24 24">
<title>phone</title>
<path d="M20.4 13.9c-0.9-0.1-1.8-0.3-2.6-0.6-1.1-0.4-2.3-0.1-3.2 0.7l-0.7 0.7c-1.8-1.2-3.4-2.7-4.6-4.6l0.7-0.7c0.8-0.8 1.1-2.1 0.7-3.2-0.3-0.8-0.5-1.7-0.6-2.6-0.2-1.5-1.5-2.6-3-2.6 0 0 0 0 0 0h-3c-0.1 0-0.2 0-0.3 0-0.8 0.1-1.5 0.5-2 1.1s-0.7 1.4-0.7 2.2c0.3 3.2 1.5 6.4 3.2 9.1 1.6 2.5 3.8 4.7 6.3 6.3 2.7 1.8 5.9 2.9 9.1 3.2 0.1 0 0.2 0 0.3 0 0 0 0 0 0 0 0.8 0 1.6-0.3 2.1-0.9s0.9-1.3 0.9-2.1v-3c0-1.5-1.1-2.8-2.6-3zM21 16.9v3c0 0.3-0.1 0.5-0.3 0.7s-0.4 0.3-0.8 0.3c-2.9-0.3-5.7-1.3-8.2-2.9-2.3-1.4-4.2-3.4-5.7-5.7-1.6-2.5-2.6-5.3-2.9-8.2 0-0.3 0.1-0.5 0.2-0.7 0.2-0.2 0.5-0.4 0.8-0.4h3c0 0 0 0 0 0 0.5 0 0.9 0.4 1 0.9 0.1 1 0.4 2.1 0.8 3 0.1 0.4 0 0.8-0.2 1.1l-1.3 1.2c-0.3 0.3-0.4 0.8-0.2 1.2 1.5 2.7 3.7 4.9 6.4 6.4 0.4 0.2 0.9 0.2 1.2-0.2l1.3-1.3c0.3-0.3 0.7-0.4 1.1-0.2 1 0.4 2 0.6 3 0.8 0.4 0.1 0.8 0.5 0.8 1 0 0 0 0 0 0z"></path>
</symbol>
<symbol id="ico-play" viewBox="0 0 24 24">
<title>play</title>
<path d="M19.5 11.2l-14-9c-0.3-0.2-0.7-0.2-1 0-0.3 0.1-0.5 0.4-0.5 0.8v18c0 0.4 0.2 0.7 0.5 0.9 0.2 0.1 0.3 0.1 0.5 0.1s0.4-0.1 0.5-0.2l14-9c0.3-0.2 0.5-0.5 0.5-0.8s-0.2-0.7-0.5-0.8zM6 19.2v-14.4l11.2 7.2-11.2 7.2z"></path>
</symbol>
<symbol id="ico-play-circle" viewBox="0 0 24 24">
<title>play-circle</title>
<path d="M12 1c-6.1 0-11 4.9-11 11s4.9 11 11 11 11-4.9 11-11-4.9-11-11-11zM12 21c-5 0-9-4-9-9s4-9 9-9c5 0 9 4 9 9s-4 9-9 9z"></path>
<path d="M16.6 11.2l-6-4c-0.3-0.2-0.7-0.2-1 0-0.4 0.1-0.6 0.4-0.6 0.8v8c0 0.4 0.2 0.7 0.5 0.9 0.2 0.1 0.3 0.1 0.5 0.1s0.4-0.1 0.6-0.2l6-4c0.3-0.2 0.4-0.5 0.4-0.8s-0.2-0.6-0.4-0.8zM11 14.1v-4.2l3.2 2.1-3.2 2.1z"></path>
</symbol>
<symbol id="ico-plus" viewBox="0 0 24 24">
<title>plus</title>
<path d="M19 11h-6v-6c0-0.6-0.4-1-1-1s-1 0.4-1 1v6h-6c-0.6 0-1 0.4-1 1s0.4 1 1 1h6v6c0 0.6 0.4 1 1 1s1-0.4 1-1v-6h6c0.6 0 1-0.4 1-1s-0.4-1-1-1z"></path>
</symbol>
<symbol id="ico-plus-circle" viewBox="0 0 24 24">
<title>plus-circle</title>
<path d="M12 1c-6.1 0-11 4.9-11 11s4.9 11 11 11 11-4.9 11-11-4.9-11-11-11zM12 21c-5 0-9-4-9-9s4-9 9-9c5 0 9 4 9 9s-4 9-9 9z"></path>
<path d="M16 11h-3v-3c0-0.6-0.4-1-1-1s-1 0.4-1 1v3h-3c-0.6 0-1 0.4-1 1s0.4 1 1 1h3v3c0 0.6 0.4 1 1 1s1-0.4 1-1v-3h3c0.6 0 1-0.4 1-1s-0.4-1-1-1z"></path>
</symbol>
<symbol id="ico-power" viewBox="0 0 24 24">
<title>power</title>
<path d="M19.1 5.9c-0.4-0.4-1-0.4-1.4 0s-0.4 1 0 1.4c3.1 3.1 3.1 8.2 0 11.3s-8.2 3.1-11.3 0c-3.1-3.1-3.1-8.2 0-11.3 0.4-0.4 0.4-1 0-1.4s-1-0.4-1.4 0c-4 3.9-4 10.3-0.1 14.2 2 1.9 4.5 2.9 7.1 2.9s5.1-1 7.1-2.9c3.9-3.9 3.9-10.3 0-14.2z"></path>
<path d="M12 13c0.6 0 1-0.4 1-1v-10c0-0.6-0.4-1-1-1s-1 0.4-1 1v10c0 0.6 0.4 1 1 1z"></path>
</symbol>
<symbol id="ico-printer" viewBox="0 0 24 24">
<title>printer</title>
<path d="M20 8h-1v-6c0-0.6-0.4-1-1-1h-12c-0.6 0-1 0.4-1 1v6h-1c-1.7 0-3 1.3-3 3v5c0 1.7 1.3 3 3 3h1v3c0 0.6 0.4 1 1 1h12c0.6 0 1-0.4 1-1v-3h1c1.7 0 3-1.3 3-3v-5c0-1.7-1.3-3-3-3zM7 3h10v5h-10v-5zM17 21h-10v-6h10v6zM21 16c0 0.6-0.4 1-1 1h-1v-3c0-0.6-0.4-1-1-1h-12c-0.6 0-1 0.4-1 1v3h-1c-0.6 0-1-0.4-1-1v-5c0-0.6 0.4-1 1-1h16c0.6 0 1 0.4 1 1v5z"></path>
</symbol>
<symbol id="ico-rotate-cw" viewBox="0 0 24 24">
<title>rotate-cw</title>
<path d="M24 10.1c0 0 0-0.1 0-0.1v-6c0-0.6-0.4-1-1-1s-1 0.4-1 1v3.7l-2.9-2.8c-1-1-2.3-1.9-3.7-2.4-5.3-1.8-11 1-12.8 6.2s0.9 10.9 6.1 12.8c1.1 0.3 2.2 0.5 3.3 0.5 4.1 0 8-2.6 9.4-6.7 0.2-0.5-0.1-1.1-0.6-1.3s-1.1 0.1-1.3 0.6c-1.5 4.2-6 6.3-10.2 4.9-4.2-1.5-6.3-6-4.9-10.2 1.5-4.1 6.1-6.3 10.3-4.8 1.1 0.4 2.2 1 3 1.9l2.8 2.6h-3.5c-0.6 0-1 0.4-1 1s0.4 1 1 1h6c0 0 0 0 0 0 0.1 0 0.2 0 0.2-0.1 0 0 0.1 0 0.1 0s0.1-0.1 0.1-0.1c0.1 0 0.2-0.1 0.2-0.2 0 0 0 0 0 0s0-0.1 0.1-0.1c0-0.1 0.1-0.1 0.1-0.2 0.2 0 0.2-0.1 0.2-0.2z"></path>
</symbol>
<symbol id="ico-scissors" viewBox="0 0 24 24">
<title>scissors</title>
<path d="M20.7 4.7c0.4-0.4 0.4-1 0-1.4s-1-0.4-1.4 0l-7.3 7.3-2.6-2.6c0.4-0.6 0.6-1.3 0.6-2 0-2.2-1.8-4-4-4s-4 1.8-4 4 1.8 4 4 4c0.7 0 1.4-0.2 2-0.6l2.6 2.6-2.6 2.6c-0.6-0.4-1.3-0.6-2-0.6-2.2 0-4 1.8-4 4s1.8 4 4 4 4-1.8 4-4c0-0.7-0.2-1.4-0.6-2l11.3-11.3zM4 6c0-1.1 0.9-2 2-2s2 0.9 2 2c0 0.6-0.2 1-0.6 1.4 0 0 0 0 0 0s0 0 0 0c-0.4 0.4-0.8 0.6-1.4 0.6-1.1 0-2-0.9-2-2zM6 20c-1.1 0-2-0.9-2-2s0.9-2 2-2c0.6 0 1 0.2 1.4 0.6 0 0 0 0 0 0s0 0 0 0c0.4 0.4 0.6 0.8 0.6 1.4 0 1.1-0.9 2-2 2z"></path>
<path d="M15.2 13.8c-0.4-0.4-1-0.4-1.4 0s-0.4 1 0 1.4l5.5 5.5c0.2 0.2 0.5 0.3 0.7 0.3s0.5-0.1 0.7-0.3c0.4-0.4 0.4-1 0-1.4l-5.5-5.5z"></path>
</symbol>
<symbol id="ico-search" viewBox="0 0 24 24">
<title>search</title>
<path d="M21.7 20.3l-3.7-3.7c1.2-1.5 2-3.5 2-5.6 0-5-4-9-9-9s-9 4-9 9c0 5 4 9 9 9 2.1 0 4.1-0.7 5.6-2l3.7 3.7c0.2 0.2 0.5 0.3 0.7 0.3s0.5-0.1 0.7-0.3c0.4-0.4 0.4-1 0-1.4zM4 11c0-3.9 3.1-7 7-7s7 3.1 7 7c0 1.9-0.8 3.7-2 4.9 0 0 0 0 0 0s0 0 0 0c-1.3 1.3-3 2-4.9 2-4 0.1-7.1-3-7.1-6.9z"></path>
</symbol>
<symbol id="ico-send" viewBox="0 0 24 24">
<title>send</title>
<path d="M23 1.9c0-0.1 0-0.2-0.1-0.3 0 0 0-0.1 0-0.1 0-0.1-0.1-0.2-0.2-0.3s-0.2-0.1-0.3-0.2c0 0-0.1 0-0.1 0-0.1 0-0.2 0-0.3-0.1 0 0.1 0 0.1 0 0.1-0.1 0-0.2 0-0.3 0.1l-20 7c-0.4 0.1-0.7 0.4-0.7 0.9 0 0.4 0.2 0.8 0.6 1l8.6 3.8 3.8 8.6c0.2 0.4 0.5 0.6 0.9 0.6 0 0 0 0 0 0 0.4 0 0.8-0.3 0.9-0.7l7-20c0.2-0.1 0.2-0.2 0.2-0.4 0 0.1 0 0.1 0 0zM18.2 4.4l-7.4 7.4-6.1-2.7 13.5-4.7zM14.9 19.3l-2.7-6.1 7.4-7.4-4.7 13.5z"></path>
</symbol>
<symbol id="ico-settings" viewBox="0 0 24 24">
<title>settings</title>
<path d="M12 8c-2.2 0-4 1.8-4 4s1.8 4 4 4c2.2 0 4-1.8 4-4s-1.8-4-4-4zM12 14c-1.1 0-2-0.9-2-2s0.9-2 2-2c1.1 0 2 0.9 2 2s-0.9 2-2 2z"></path>
<path d="M20.3 15.4c0.1-0.2 0.3-0.4 0.7-0.4 1.7 0 3-1.3 3-3s-1.3-3-3-3h-0.2c-0.2 0-0.4-0.1-0.5-0.3 0-0.1 0-0.1-0.1-0.2-0.1-0.2-0.1-0.5 0.2-0.8 1.2-1.2 1.2-3.1 0-4.2v0c0 0 0 0 0 0-0.6-0.6-1.3-0.9-2.1-0.9 0 0 0 0 0 0-0.8 0-1.6 0.3-2.2 0.9-0.2 0.2-0.5 0.2-0.7 0.1-0.2 0-0.4-0.3-0.4-0.6 0-1.7-1.3-3-3-3s-3 1.3-3 3v0.2c0 0.2-0.1 0.4-0.3 0.5-0.1 0-0.1 0-0.2 0.1-0.2 0.1-0.5 0-0.8-0.2-1.2-1.2-3.1-1.2-4.2 0-1.2 1.2-1.2 3.1 0.1 4.3 0.2 0.2 0.2 0.5 0.1 0.8-0.1 0.2-0.4 0.4-0.7 0.4-1.7 0-3 1.3-3 3s1.3 3 3 3h0.2c0.3 0 0.5 0.2 0.6 0.4s0.1 0.5-0.2 0.8c-0.6 0.6-0.9 1.3-0.9 2.1s0.3 1.5 0.9 2.1c0 0 0 0 0 0 1.2 1.2 3.1 1.2 4.3-0.1 0.2-0.2 0.5-0.2 0.8-0.1s0.4 0.3 0.4 0.7c0 1.7 1.3 3 3 3s3-1.3 3-3v-0.2c0-0.3 0.2-0.5 0.4-0.6s0.5-0.1 0.8 0.2c1.2 1.2 3.1 1.2 4.2 0 1.2-1.2 1.2-3.1-0.1-4.3-0.1-0.2-0.2-0.5-0.1-0.7 0 0 0 0 0 0zM18.5 14.6c-0.4 1-0.2 2.1 0.6 3 0.2 0.2 0.3 0.4 0.3 0.7s-0.1 0.5-0.3 0.7c-0.2 0.2-0.4 0.3-0.7 0.3 0 0 0 0 0 0-0.3 0-0.5-0.1-0.8-0.4-0.8-0.8-1.9-1-2.9-0.5-1 0.4-1.6 1.4-1.6 2.4v0.2c0 0.6-0.4 1-1 1s-1-0.4-1-1c0 0 0-0.1 0-0.1 0-1.1-0.7-2-1.7-2.4-0.3-0.2-0.7-0.2-1.1-0.2-0.7 0-1.4 0.3-1.9 0.8-0.4 0.4-1 0.4-1.4 0 0 0 0 0 0 0v0c-0.2-0.2-0.3-0.4-0.3-0.7s0.1-0.5 0.4-0.8c0.8-0.8 1-1.9 0.5-2.9-0.4-1-1.4-1.6-2.4-1.6h-0.2c-0.6 0-1-0.4-1-1s0.4-1 1-1c0 0 0.1 0 0.1 0 1.1 0 2-0.7 2.4-1.7s0.2-2.1-0.6-3c-0.4-0.4-0.4-1 0-1.4s1-0.4 1.5 0.1c0.7 0.7 1.8 0.9 2.7 0.6 0.1 0 0.2 0 0.3-0.1 1-0.4 1.6-1.4 1.6-2.4v-0.2c0-0.6 0.4-1 1-1s1 0.4 1 1.1c0 1.1 0.6 2 1.6 2.4s2.1 0.2 3-0.6c0.2-0.2 0.4-0.3 0.7-0.3v0c0.3 0 0.5 0.1 0.7 0.3 0 0 0 0 0 0 0.4 0.4 0.4 1-0.1 1.5-0.7 0.7-0.9 1.8-0.6 2.7 0 0.1 0 0.2 0.1 0.3 0.4 1 1.4 1.6 2.4 1.6h0.2c0.6 0 1 0.4 1 1s-0.4 1-1.1 1c-1 0-2 0.6-2.4 1.6z"></path>
</symbol>
<symbol id="ico-share-2" viewBox="0 0 24 24">
<title>share-2</title>
<path d="M18 15c-1.1 0-2.1 0.5-2.8 1.2l-5.3-3.1c0-0.4 0.1-0.7 0.1-1.1s-0.1-0.7-0.2-1.1l5.3-3.1c0.8 0.7 1.8 1.2 2.9 1.2 2.2 0 4-1.8 4-4s-1.8-4-4-4-4 1.8-4 4c0 0.4 0.1 0.7 0.2 1.1l-5.4 3.1c-0.7-0.7-1.7-1.2-2.8-1.2-2.2 0-4 1.8-4 4s1.8 4 4 4c1.1 0 2.1-0.5 2.8-1.2l5.3 3.1c0 0.4-0.1 0.7-0.1 1.1 0 2.2 1.8 4 4 4s4-1.8 4-4-1.8-4-4-4zM18 3c1.1 0 2 0.9 2 2s-0.9 2-2 2-2-0.9-2-2 0.9-2 2-2zM6 14c-1.1 0-2-0.9-2-2s0.9-2 2-2 2 0.9 2 2c0 1.1-0.9 2-2 2zM18 21c-1.1 0-2-0.9-2-2 0-0.4 0.1-0.7 0.3-1 0 0 0 0 0 0s0 0 0 0c0.3-0.6 1-1 1.7-1 1.1 0 2 0.9 2 2s-0.9 2-2 2z"></path>
</symbol>
<symbol id="ico-shield" viewBox="0 0 24 24">
<title>shield</title>
<path d="M20.4 4.1l-8-3c-0.2-0.1-0.5-0.1-0.7 0l-8 3c-0.4 0.1-0.7 0.5-0.7 0.9v7c0 6.5 8.2 10.7 8.6 10.9 0.1 0.1 0.2 0.1 0.4 0.1s0.3 0 0.4-0.1c0.4-0.2 8.6-4.4 8.6-10.9v-7c0-0.4-0.3-0.8-0.6-0.9zM19 12c0 4.5-5.4 7.9-7 8.9-1.6-0.9-7-4.3-7-8.9v-6.3l7-2.6 7 2.6v6.3z"></path>
</symbol>
<symbol id="ico-shopping-bag" viewBox="0 0 24 24">
<title>shopping-bag</title>
<path d="M21.9 5.6c0 0 0-0.1-0.1-0.1 0 0 0-0.1-0.1-0.1l-3-4c-0.1-0.3-0.4-0.4-0.7-0.4h-12c-0.3 0-0.6 0.1-0.8 0.4l-3 4c0 0 0 0.1-0.1 0.1 0 0 0 0.1-0.1 0.1 0 0.2 0 0.3 0 0.4v14c0 1.7 1.3 3 3 3h14c1.7 0 3-1.3 3-3v-14c0-0.1 0-0.2-0.1-0.4zM6.5 3h11l1.5 2h-14l1.5-2zM19 21h-14c-0.6 0-1-0.4-1-1v-13h16v13c0 0.6-0.4 1-1 1z"></path>
<path d="M16 9c-0.6 0-1 0.4-1 1 0 1.7-1.3 3-3 3s-3-1.3-3-3c0-0.6-0.4-1-1-1s-1 0.4-1 1c0 2.8 2.2 5 5 5s5-2.2 5-5c0-0.6-0.4-1-1-1z"></path>
</symbol>
<symbol id="ico-shopping-cart" viewBox="0 0 24 24">
<title>shopping-cart</title>
<path d="M11 21c0 1.105-0.895 2-2 2s-2-0.895-2-2c0-1.105 0.895-2 2-2s2 0.895 2 2z"></path>
<path d="M22 21c0 1.105-0.895 2-2 2s-2-0.895-2-2c0-1.105 0.895-2 2-2s2 0.895 2 2z"></path>
<path d="M23.8 5.4c-0.2-0.3-0.5-0.4-0.8-0.4h-16.2l-0.8-4.2c-0.1-0.5-0.5-0.8-1-0.8h-4c-0.6 0-1 0.4-1 1s0.4 1 1 1h3.2l0.8 4.2c0 0 0 0.1 0 0.1l1.7 8.3c0.3 1.4 1.5 2.4 2.9 2.4 0 0 0 0 0.1 0h9.7c1.5 0 2.7-1 3-2.4l1.6-8.4c0-0.3 0-0.6-0.2-0.8zM20.4 14.2c-0.1 0.5-0.5 0.8-1 0.8h-9.7c-0.5 0-0.9-0.3-1-0.8l-1.5-7.2h14.6l-1.4 7.2z"></path>
</symbol>
<symbol id="ico-slash" viewBox="0 0 24 24">
<title>slash</title>
<path d="M19.8 19.8c2-2 3.2-4.7 3.2-7.8 0-6.1-4.9-11-11-11-3 0-5.8 1.2-7.8 3.2 0 0 0 0 0 0s0 0 0 0c-2 2-3.2 4.8-3.2 7.8 0 6.1 4.9 11 11 11 3 0 5.8-1.2 7.8-3.2 0 0 0 0 0 0s0 0 0 0zM21 12c0 2.1-0.7 4.1-2 5.6l-12.6-12.6c1.5-1.3 3.5-2 5.6-2 5 0 9 4 9 9zM3 12c0-2.1 0.7-4.1 2-5.6l12.6 12.6c-1.5 1.2-3.5 2-5.6 2-5 0-9-4-9-9z"></path>
</symbol>
<symbol id="ico-smartphone" viewBox="0 0 24 24">
<title>smartphone</title>
<path d="M17 1h-10c-1.7 0-3 1.3-3 3v16c0 1.7 1.3 3 3 3h10c1.7 0 3-1.3 3-3v-16c0-1.7-1.3-3-3-3zM18 20c0 0.6-0.4 1-1 1h-10c-0.6 0-1-0.4-1-1v-16c0-0.6 0.4-1 1-1h10c0.6 0 1 0.4 1 1v16z"></path>
<path d="M11.3 17.3c-0.2 0.2-0.3 0.4-0.3 0.7s0.1 0.5 0.3 0.7c0.2 0.2 0.4 0.3 0.7 0.3s0.5-0.1 0.7-0.3c0.2-0.2 0.3-0.5 0.3-0.7s-0.1-0.5-0.3-0.7c-0.4-0.4-1-0.4-1.4 0z"></path>
</symbol>
<symbol id="ico-star" viewBox="0 0 24 24">
<title>star</title>
<path d="M23 9c-0.1-0.4-0.4-0.6-0.8-0.7l-6.4-0.9-2.9-5.8c-0.3-0.7-1.5-0.7-1.8 0l-2.9 5.7-6.3 1c-0.4 0-0.7 0.3-0.9 0.7-0.1 0.4 0 0.8 0.3 1l4.6 4.5-1.1 6.4c-0.1 0.4 0.1 0.8 0.4 1s0.7 0.3 1.1 0.1l5.7-3 5.7 3c0.2 0 0.3 0 0.5 0s0.4-0.1 0.6-0.2c0.3-0.2 0.5-0.6 0.4-1l-1.1-6.4 4.6-4.5c0.3-0.2 0.4-0.6 0.3-0.9zM16.3 13.4c-0.2 0.3-0.3 0.6-0.3 0.9l0.8 4.9-4.4-2.3c-0.3-0.2-0.6-0.2-0.9 0l-4.4 2.3 0.9-4.9c0-0.3-0.1-0.6-0.3-0.9l-3.6-3.4 4.9-0.7c0.3 0 0.6-0.3 0.8-0.5l2.2-4.5 2.2 4.4c0.1 0.3 0.4 0.5 0.8 0.5l4.9 0.7-3.6 3.5z"></path>
</symbol>
<symbol id="ico-tag" viewBox="0 0 24 24">
<title>tag</title>
<path d="M21.3 9.9l-8.6-8.6c-0.2-0.2-0.4-0.3-0.7-0.3h-10c-0.6 0-1 0.4-1 1v10c0 0.3 0.1 0.5 0.3 0.7l8.6 8.6c0.6 0.6 1.4 0.9 2.1 0.9 0.8 0 1.5-0.3 2.1-0.9l7.2-7.2c0 0 0 0 0 0 1.2-1.2 1.2-3 0-4.2zM19.9 12.7l-7.2 7.2c-0.4 0.4-1 0.4-1.4 0l-8.3-8.3v-8.6h8.6l8.3 8.3c0.4 0.4 0.4 1 0 1.4z"></path>
<path d="M6.3 6.3c-0.2 0.2-0.3 0.4-0.3 0.7s0.1 0.5 0.3 0.7c0.2 0.2 0.4 0.3 0.7 0.3s0.5-0.1 0.7-0.3c0.2-0.2 0.3-0.4 0.3-0.7s-0.1-0.5-0.3-0.7c-0.4-0.4-1-0.4-1.4 0z"></path>
</symbol>
<symbol id="ico-thumbs-down" viewBox="0 0 24 24">
<title>thumbs-down</title>
<path d="M23 3.9c-0.2-1.7-1.6-2.9-3.3-2.9 0 0 0 0-0.1 0h-13.9c-1.5 0-2.7 1.1-3 2.5l-1.4 9c-0.2 1.6 0.9 3.2 2.5 3.4 0.2 0 0.3 0 0.5 0h4.7v3c0 2.2 1.8 4 4 4 0.4 0 0.8-0.2 0.9-0.6l3.7-8.4h2c1.7 0 3.1-1.2 3.3-2.9 0 0 0-0.1 0-0.1v-6.9c0.1 0 0.1-0.1 0.1-0.1zM16 12.8l-3.6 8.1c-0.8-0.3-1.4-1-1.4-1.9v-4c0-0.6-0.4-1-1-1h-5.7c0 0-0.1 0-0.2 0-0.5-0.1-0.9-0.6-0.8-1.1l1.4-9c0.1-0.5 0.5-0.9 1-0.9h10.3v9.8zM21 10.9c-0.1 0.6-0.7 1.1-1.3 1.1h-1.7v-9h1.7c0.6-0.1 1.2 0.4 1.3 1.1v6.8z"></path>
</symbol>
<symbol id="ico-thumbs-up" viewBox="0 0 24 24">
<title>thumbs-up</title>
<path d="M22.1 9.2c-0.5-0.6-1.2-1.1-2-1.2-0.2 0-0.3 0-0.5 0h-4.6v-3c0-2.2-1.8-4-4-4-0.4 0-0.8 0.2-0.9 0.6l-3.7 8.4h-2.4c-1.7 0-3 1.3-3 3v7c0 1.7 1.3 3 3 3h14.3c0 0 0 0 0 0 1.5 0 2.7-1.1 3-2.5l1.4-9c0.1-0.8-0.1-1.6-0.6-2.3zM6 21h-2c-0.6 0-1-0.4-1-1v-7c0-0.6 0.4-1 1-1h2v9zM19.3 20.2c-0.1 0.5-0.5 0.8-1 0.8 0 0 0 0 0 0h-10.3v-9.8l3.6-8.1c0.8 0.3 1.4 1 1.4 1.9v4c0 0.6 0.4 1 1 1h5.7c0.1 0 0.1 0 0.2 0 0.3 0 0.5 0.2 0.7 0.4s0.2 0.5 0.2 0.7l-1.5 9.1z"></path>
</symbol>
<symbol id="ico-trash-2" viewBox="0 0 24 24">
<title>trash-2</title>
<path d="M21 5h-4v-1c0-1.7-1.3-3-3-3h-4c-1.7 0-3 1.3-3 3v1h-4c-0.6 0-1 0.4-1 1s0.4 1 1 1h1v13c0 1.7 1.3 3 3 3h10c1.7 0 3-1.3 3-3v-13h1c0.6 0 1-0.4 1-1s-0.4-1-1-1zM9 4c0-0.6 0.4-1 1-1h4c0.6 0 1 0.4 1 1v1h-6v-1zM18 20c0 0.6-0.4 1-1 1h-10c-0.6 0-1-0.4-1-1v-13h12v13z"></path>
<path d="M10 10c-0.6 0-1 0.4-1 1v6c0 0.6 0.4 1 1 1s1-0.4 1-1v-6c0-0.6-0.4-1-1-1z"></path>
<path d="M14 10c-0.6 0-1 0.4-1 1v6c0 0.6 0.4 1 1 1s1-0.4 1-1v-6c0-0.6-0.4-1-1-1z"></path>
</symbol>
<symbol id="ico-truck" viewBox="0 0 24 24">
<title>truck</title>
<path d="M23.7 10.3l-3-3c-0.2-0.2-0.4-0.3-0.7-0.3h-3v-4c0-0.6-0.4-1-1-1h-15c-0.6 0-1 0.4-1 1v13c0 0.6 0.4 1 1 1h1.4c-0.3 0.5-0.4 1-0.4 1.5 0 1.9 1.6 3.5 3.5 3.5s3.5-1.6 3.5-3.5c0-0.5-0.1-1-0.4-1.5h6.7c-0.2 0.5-0.4 1-0.4 1.5 0 1.9 1.6 3.5 3.5 3.5s3.5-1.6 3.5-3.5c0-0.5-0.1-1-0.4-1.5h1.5c0.6 0 1-0.4 1-1v-5c0-0.3-0.1-0.5-0.3-0.7zM2 4h13v11h-13v-11zM7 18.5c0 0.8-0.7 1.5-1.5 1.5s-1.5-0.7-1.5-1.5 0.7-1.5 1.5-1.5 1.5 0.7 1.5 1.5zM20 18.5c0 0.8-0.7 1.5-1.5 1.5s-1.5-0.7-1.5-1.5 0.7-1.5 1.5-1.5 1.5 0.7 1.5 1.5zM22 15h-5v-6h2.6l2.4 2.4v3.6z"></path>
</symbol>
<symbol id="ico-upload" viewBox="0 0 24 24">
<title>upload</title>
<path d="M21 14c-0.6 0-1 0.4-1 1v4c0 0.6-0.4 1-1 1h-14c-0.6 0-1-0.4-1-1v-4c0-0.6-0.4-1-1-1s-1 0.4-1 1v4c0 1.7 1.3 3 3 3h14c1.7 0 3-1.3 3-3v-4c0-0.6-0.4-1-1-1z"></path>
<path d="M7.7 8.7l3.3-3.3v9.6c0 0.6 0.4 1 1 1s1-0.4 1-1v-9.6l3.3 3.3c0.2 0.2 0.4 0.3 0.7 0.3s0.5-0.1 0.7-0.3c0.4-0.4 0.4-1 0-1.4l-5-5c-0.1-0.1-0.2-0.2-0.3-0.2-0.2-0.1-0.5-0.1-0.8 0-0.1 0.1-0.2 0.1-0.3 0.2l-5 5c-0.4 0.4-0.4 1 0 1.4s1 0.4 1.4 0z"></path>
</symbol>
<symbol id="ico-user" viewBox="0 0 24 24">
<title>user</title>
<path d="M16 14h-8c-2.8 0-5 2.2-5 5v2c0 0.6 0.4 1 1 1s1-0.4 1-1v-2c0-1.7 1.3-3 3-3h8c1.7 0 3 1.3 3 3v2c0 0.6 0.4 1 1 1s1-0.4 1-1v-2c0-2.8-2.2-5-5-5z"></path>
<path d="M12 12c2.8 0 5-2.2 5-5s-2.2-5-5-5-5 2.2-5 5 2.2 5 5 5zM12 4c1.7 0 3 1.3 3 3s-1.3 3-3 3-3-1.3-3-3 1.3-3 3-3z"></path>
</symbol>
<symbol id="ico-x" viewBox="0 0 24 24">
<title>x</title>
<path d="M13.4 12l5.3-5.3c0.4-0.4 0.4-1 0-1.4s-1-0.4-1.4 0l-5.3 5.3-5.3-5.3c-0.4-0.4-1-0.4-1.4 0s-0.4 1 0 1.4l5.3 5.3-5.3 5.3c-0.4 0.4-0.4 1 0 1.4 0.2 0.2 0.4 0.3 0.7 0.3s0.5-0.1 0.7-0.3l5.3-5.3 5.3 5.3c0.2 0.2 0.5 0.3 0.7 0.3s0.5-0.1 0.7-0.3c0.4-0.4 0.4-1 0-1.4l-5.3-5.3z"></path>
</symbol>
<symbol id="ico-zoom-in" viewBox="0 0 24 24">
<title>zoom-in</title>
<path d="M21.7 20.3l-3.7-3.7c1.2-1.5 2-3.5 2-5.6 0-5-4-9-9-9s-9 4-9 9c0 5 4 9 9 9 2.1 0 4.1-0.7 5.6-2l3.7 3.7c0.2 0.2 0.5 0.3 0.7 0.3s0.5-0.1 0.7-0.3c0.4-0.4 0.4-1 0-1.4zM4 11c0-3.9 3.1-7 7-7s7 3.1 7 7c0 1.9-0.8 3.7-2 4.9 0 0 0 0 0 0s0 0 0 0c-1.3 1.3-3 2-4.9 2-4 0.1-7.1-3-7.1-6.9z"></path>
<path d="M14 10h-2v-2c0-0.6-0.4-1-1-1s-1 0.4-1 1v2h-2c-0.6 0-1 0.4-1 1s0.4 1 1 1h2v2c0 0.6 0.4 1 1 1s1-0.4 1-1v-2h2c0.6 0 1-0.4 1-1s-0.4-1-1-1z"></path>
</symbol>
<symbol id="ico-zoom-out" viewBox="0 0 24 24">
<title>zoom-out</title>
<path d="M21.7 20.3l-3.7-3.7c1.2-1.5 2-3.5 2-5.6 0-5-4-9-9-9s-9 4-9 9c0 5 4 9 9 9 2.1 0 4.1-0.7 5.6-2l3.7 3.7c0.2 0.2 0.5 0.3 0.7 0.3s0.5-0.1 0.7-0.3c0.4-0.4 0.4-1 0-1.4zM4 11c0-3.9 3.1-7 7-7s7 3.1 7 7c0 1.9-0.8 3.7-2 4.9 0 0 0 0 0 0s0 0 0 0c-1.3 1.3-3 2-4.9 2-4 0.1-7.1-3-7.1-6.9z"></path>
<path d="M14 10h-6c-0.6 0-1 0.4-1 1s0.4 1 1 1h6c0.6 0 1-0.4 1-1s-0.4-1-1-1z"></path>
</symbol>
</defs>
</svg>
