<!-- Generated by IcoMoon.io -->
<svg version="1.1" xmlns="http://www.w3.org/2000/svg" width="48" height="48" viewBox="0 0 48 48">
<title>airport_shuttle</title>
<path d="M30 22.031h10.031l-8.063-8.063h-1.969v8.063zM34.969 34.969c1.688 0 3-1.313 3-3s-1.313-3-3-3-3 1.313-3 3 1.313 3 3 3zM25.969 22.031v-8.063h-7.969v8.063h7.969zM12 34.969c1.688 0 3-1.313 3-3s-1.313-3-3-3-3 1.313-3 3 1.313 3 3 3zM6 22.031h7.969v-8.063h-7.969v8.063zM34.031 10.031l12 12v9.938h-5.063c0 3.281-2.719 6-6 6s-6-2.719-6-6h-10.969c0 3.281-2.719 6-6 6s-6-2.719-6-6h-4.031v-18c0-2.25 1.875-3.938 4.031-3.938h28.031z"></path>
</svg>
