<!-- Generated by IcoMoon.io -->
<svg version="1.1" xmlns="http://www.w3.org/2000/svg" width="48" height="48" viewBox="0 0 48 48">
<title>content_cut</title>
<path d="M37.969 6h6v1.969l-13.969 14.063-4.031-4.031zM24 25.031c0.563 0 1.031-0.469 1.031-1.031s-0.469-1.031-1.031-1.031-1.031 0.469-1.031 1.031 0.469 1.031 1.031 1.031zM12 40.031c2.156 0 4.031-1.781 4.031-4.031s-1.875-4.031-4.031-4.031-4.031 1.781-4.031 4.031 1.875 4.031 4.031 4.031zM12 16.031c2.156 0 4.031-1.781 4.031-4.031s-1.875-4.031-4.031-4.031-4.031 1.781-4.031 4.031 1.875 4.031 4.031 4.031zM19.313 15.281l24.656 24.75v1.969h-6l-13.969-13.969-4.688 4.688c0.469 1.031 0.656 2.063 0.656 3.281 0 4.406-3.563 7.969-7.969 7.969s-7.969-3.563-7.969-7.969 3.563-7.969 7.969-7.969c1.219 0 2.25 0.188 3.281 0.656l4.688-4.688-4.688-4.688c-1.031 0.469-2.063 0.656-3.281 0.656-4.406 0-7.969-3.563-7.969-7.969s3.563-7.969 7.969-7.969 7.969 3.563 7.969 7.969c0 1.219-0.188 2.25-0.656 3.281z"></path>
</svg>
