<!-- Generated by IcoMoon.io -->
<svg version="1.1" xmlns="http://www.w3.org/2000/svg" width="48" height="48" viewBox="0 0 48 48">
<title>date_range</title>
<path d="M37.969 40.031v-22.031h-27.938v22.031h27.938zM37.969 7.969c2.156 0 4.031 1.875 4.031 4.031v28.031c0 2.156-1.875 3.938-4.031 3.938h-27.938c-2.25 0-4.031-1.781-4.031-3.938v-28.031c0-2.156 1.781-4.031 4.031-4.031h1.969v-3.938h4.031v3.938h15.938v-3.938h4.031v3.938h1.969zM34.031 22.031v3.938h-4.031v-3.938h4.031zM25.969 22.031v3.938h-3.938v-3.938h3.938zM18 22.031v3.938h-4.031v-3.938h4.031z"></path>
</svg>
