<!-- Generated by IcoMoon.io -->
<svg version="1.1" xmlns="http://www.w3.org/2000/svg" width="48" height="48" viewBox="0 0 48 48">
<title>help</title>
<path d="M30.094 22.5c1.125-1.125 1.875-2.719 1.875-4.5 0-4.406-3.563-7.969-7.969-7.969s-7.969 3.563-7.969 7.969h3.938c0-2.156 1.875-4.031 4.031-4.031s4.031 1.875 4.031 4.031c0 1.125-0.469 2.063-1.219 2.813l-2.438 2.531c-1.406 1.5-2.344 3.469-2.344 5.625v1.031h3.938c0-3 0.938-4.125 2.344-5.625zM25.969 37.969v-3.938h-3.938v3.938h3.938zM24 4.031c11.063 0 19.969 8.906 19.969 19.969s-8.906 19.969-19.969 19.969-19.969-8.906-19.969-19.969 8.906-19.969 19.969-19.969z"></path>
</svg>
