<!-- Generated by IcoMoon.io -->
<svg version="1.1" xmlns="http://www.w3.org/2000/svg" width="48" height="48" viewBox="0 0 48 48">
<title>local_offer</title>
<path d="M10.969 13.969c1.688 0 3-1.313 3-3s-1.313-3-3-3-3 1.313-3 3 1.313 3 3 3zM42.844 23.156c0.75 0.75 1.125 1.688 1.125 2.813s-0.375 2.063-1.125 2.813l-14.063 14.063c-0.75 0.75-1.688 1.125-2.813 1.125s-2.063-0.375-2.813-1.125l-18-18c-0.75-0.75-1.125-1.688-1.125-2.813v-14.063c0-2.156 1.781-3.938 3.938-3.938h14.063c1.125 0 2.063 0.375 2.813 1.125z"></path>
</svg>
