<!-- Generated by IcoMoon.io -->
<svg version="1.1" xmlns="http://www.w3.org/2000/svg" width="48" height="48" viewBox="0 0 48 48">
<title>notifications_off</title>
<path d="M36 29.344l-17.906-18.844c0.469-0.188 0.938-0.469 1.406-0.656h0.094l0.563-0.281c0.281-0.094 0.563-0.094 0.844-0.188v-1.406c0-1.688 1.313-3 3-3s3 1.313 3 3v1.406c5.719 1.406 9 6.469 9 12.656v7.313zM24 43.969c-2.25 0-4.031-1.688-4.031-3.938h8.063c0 2.25-1.781 3.938-4.031 3.938zM15.656 12.281c8.777 9.067 17.594 18.093 26.344 27.188l-2.531 2.531-4.031-4.031h-27.469v-1.969l4.031-4.031v-10.031c0-2.531 0.563-4.875 1.594-6.844l-5.625-5.531 2.531-2.625z"></path>
</svg>
