<!-- Generated by IcoMoon.io -->
<svg version="1.1" xmlns="http://www.w3.org/2000/svg" width="48" height="48" viewBox="0 0 48 48">
<title>notifications_active</title>
<path d="M24 43.969c-2.25 0-4.031-1.781-4.031-3.938h7.969c0 2.329-1.745 3.938-3.938 3.938zM36 22.031v9.938l4.031 4.031v1.969h-32.063v-1.969l4.031-4.031v-9.938c0-6.188 3.281-11.25 9-12.656v-1.406c0-1.688 1.313-3 3-3s3 1.313 3 3v1.406c5.719 1.406 9 6.563 9 12.656zM39.938 21c-0.281-5.344-3-9.938-7.031-12.844l2.813-2.813c4.781 3.656 7.969 9.281 8.25 15.656h-4.031zM15.188 8.156c-4.125 2.906-6.844 7.5-7.125 12.844h-4.031c0.281-6.375 3.469-12 8.25-15.656z"></path>
</svg>
