<!-- Generated by IcoMoon.io -->
<svg version="1.1" xmlns="http://www.w3.org/2000/svg" width="48" height="48" viewBox="0 0 48 48">
<title>photo_camera</title>
<path d="M24 34.031c5.531 0 10.031-4.5 10.031-10.031s-4.5-10.031-10.031-10.031-10.031 4.5-10.031 10.031 4.5 10.031 10.031 10.031zM18 4.031h12l3.656 3.938h6.375c2.156 0 3.938 1.875 3.938 4.031v24c0 2.156-1.781 4.031-3.938 4.031h-32.063c-2.156 0-3.938-1.875-3.938-4.031v-24c0-2.156 1.781-4.031 3.938-4.031h6.375zM17.625 24c0-3.563 2.813-6.375 6.375-6.375s6.375 2.813 6.375 6.375-2.813 6.375-6.375 6.375-6.375-2.813-6.375-6.375z"></path>
</svg>
