<!-- Generated by IcoMoon.io -->
<svg version="1.1" xmlns="http://www.w3.org/2000/svg" width="48" height="48" viewBox="0 0 48 48">
<title>restore</title>
<path d="M24 16.031h3v8.438l7.031 4.219-1.5 2.438-8.531-5.156v-9.938zM25.969 6c9.938 0 18 8.063 18 18s-8.063 18-18 18c-4.969 0-9.375-1.969-12.656-5.25l2.813-2.906c2.531 2.531 6 4.125 9.844 4.125 7.781 0 14.063-6.188 14.063-13.969s-6.281-13.969-14.063-13.969-13.969 6.188-13.969 13.969h6l-8.063 8.063-0.188-0.281-7.781-7.781h6c0-9.938 8.063-18 18-18z"></path>
</svg>
