<!-- Generated by IcoMoon.io -->
<svg version="1.1" xmlns="http://www.w3.org/2000/svg" width="48" height="48" viewBox="0 0 48 48">
<title>sentiment_neutral</title>
<path d="M24 40.031c8.813 0 16.031-7.219 16.031-16.031s-7.219-16.031-16.031-16.031-16.031 7.219-16.031 16.031 7.219 16.031 16.031 16.031zM24 4.031c11.063 0 19.969 8.906 19.969 19.969s-8.906 19.969-19.969 19.969-19.969-8.906-19.969-19.969 8.906-19.969 19.969-19.969zM13.969 19.031c0-1.688 1.313-3 3-3s3 1.313 3 3-1.313 3-3 3-3-1.313-3-3zM28.031 19.031c0-1.688 1.313-3 3-3s3 1.313 3 3-1.313 3-3 3-3-1.313-3-3zM18 28.031h12v3h-12v-3z"></path>
</svg>
