<!-- Generated by IcoMoon.io -->
<svg version="1.1" xmlns="http://www.w3.org/2000/svg" width="48" height="48" viewBox="0 0 48 48">
<title>account_circle</title>
<path d="M24 38.438c4.969 0 9.375-2.625 12-6.469-0.094-3.938-8.063-6.188-12-6.188-4.031 0-11.906 2.25-12 6.188 2.625 3.844 7.031 6.469 12 6.469zM24 10.031c-3.281 0-6 2.719-6 6s2.719 6 6 6 6-2.719 6-6-2.719-6-6-6zM24 4.031c11.063 0 19.969 8.906 19.969 19.969s-8.906 19.969-19.969 19.969-19.969-8.906-19.969-19.969 8.906-19.969 19.969-19.969z"></path>
</svg>
