<!-- Generated by IcoMoon.io -->
<svg version="1.1" xmlns="http://www.w3.org/2000/svg" width="48" height="48" viewBox="0 0 48 48">
<title>block</title>
<path d="M24 40.031c8.813 0 16.031-7.219 16.031-16.031 0-3.656-1.219-7.125-3.375-9.844l-22.5 22.5c2.719 2.156 6.188 3.375 9.844 3.375zM7.969 24c0 3.656 1.219 7.125 3.375 9.844l22.5-22.5c-2.719-2.156-6.188-3.375-9.844-3.375-8.813 0-16.031 7.219-16.031 16.031zM24 4.031c11.063 0 19.969 8.906 19.969 19.969s-8.906 19.969-19.969 19.969-19.969-8.906-19.969-19.969 8.906-19.969 19.969-19.969z"></path>
</svg>
