<!-- Generated by IcoMoon.io -->
<svg version="1.1" xmlns="http://www.w3.org/2000/svg" width="48" height="48" viewBox="0 0 48 48">
<title>copyright</title>
<path d="M24 40.031c8.813 0 16.031-7.219 16.031-16.031s-7.219-16.031-16.031-16.031-16.031 7.219-16.031 16.031 7.219 16.031 16.031 16.031zM24 4.031c11.063 0 19.969 8.906 19.969 19.969s-8.906 19.969-19.969 19.969-19.969-8.906-19.969-19.969 8.906-19.969 19.969-19.969zM23.719 18.281c-2.884 0-3.75 2.553-3.75 5.438v0.563c0 2.885 0.868 5.438 3.75 5.438 1.761 0 3.281-1.075 3.281-2.813h3.563c0 1.83-0.991 3.206-2.063 4.125-1.209 1.036-2.616 1.688-4.781 1.688-5.117 0-7.688-3.382-7.688-8.438v-0.563c0-2.424 0.681-4.635 1.875-6 1.237-1.414 3.22-2.531 5.813-2.531 2.075 0 3.809 0.715 4.875 1.781 1.031 1.031 1.969 2.624 1.969 4.594h-3.563c0-0.469-0.094-0.844-0.281-1.219s-0.375-0.844-0.656-1.125c-0.508-0.508-1.376-0.938-2.344-0.938z"></path>
</svg>
