<!-- Generated by IcoMoon.io -->
<svg version="1.1" xmlns="http://www.w3.org/2000/svg" width="48" height="48" viewBox="0 0 48 48">
<title>local_shipping</title>
<path d="M36 37.031c1.688 0 3-1.313 3-3s-1.313-3-3-3-3 1.313-3 3 1.313 3 3 3zM39 19.031h-4.969v4.969h8.906zM12 37.031c1.688 0 3-1.313 3-3s-1.313-3-3-3-3 1.313-3 3 1.313 3 3 3zM40.031 16.031l6 7.969v10.031h-4.031c0 3.281-2.719 6-6 6s-6-2.719-6-6h-12c0 3.281-2.719 6-6 6s-6-2.719-6-6h-4.031v-22.031c0-2.156 1.875-4.031 4.031-4.031h28.031v8.063h6z"></path>
</svg>
