<!-- Generated by IcoMoon.io -->
<svg version="1.1" xmlns="http://www.w3.org/2000/svg" width="48" height="48" viewBox="0 0 48 48">
<title>more_vert</title>
<path d="M24 31.969c2.156 0 4.031 1.875 4.031 4.031s-1.875 4.031-4.031 4.031-4.031-1.875-4.031-4.031 1.875-4.031 4.031-4.031zM24 19.969c2.156 0 4.031 1.875 4.031 4.031s-1.875 4.031-4.031 4.031-4.031-1.875-4.031-4.031 1.875-4.031 4.031-4.031zM24 16.031c-2.156 0-4.031-1.875-4.031-4.031s1.875-4.031 4.031-4.031 4.031 1.875 4.031 4.031-1.875 4.031-4.031 4.031z"></path>
</svg>
