<!-- Generated by IcoMoon.io -->
<svg version="1.1" xmlns="http://www.w3.org/2000/svg" width="48" height="48" viewBox="0 0 48 48">
<title>sentiment_dissatisfied</title>
<path d="M24 28.031c4.688 0 8.625 2.813 10.219 6.938h-3.281c-1.406-2.344-3.938-3.938-6.938-3.938s-5.531 1.594-6.938 3.938h-3.281c1.594-4.125 5.531-6.938 10.219-6.938zM24 40.031c8.813 0 16.031-7.219 16.031-16.031s-7.219-16.031-16.031-16.031-16.031 7.219-16.031 16.031 7.219 16.031 16.031 16.031zM24 4.031c11.063 0 19.969 8.906 19.969 19.969s-8.906 19.969-19.969 19.969-19.969-8.906-19.969-19.969 8.906-19.969 19.969-19.969zM13.969 19.031c0-1.688 1.313-3 3-3s3 1.313 3 3-1.313 3-3 3-3-1.313-3-3zM28.031 19.031c0-1.688 1.313-3 3-3s3 1.313 3 3-1.313 3-3 3-3-1.313-3-3z"></path>
</svg>
