<!-- Generated by IcoMoon.io -->
<svg version="1.1" xmlns="http://www.w3.org/2000/svg" width="48" height="48" viewBox="0 0 48 48">
<title>share</title>
<path d="M36 32.156c3.188 0 5.813 2.625 5.813 5.813s-2.625 5.906-5.813 5.906-5.813-2.719-5.813-5.906c0-0.469 0-0.938 0.094-1.313l-14.156-8.25c-1.125 1.031-2.531 1.594-4.125 1.594-3.281 0-6-2.719-6-6s2.719-6 6-6c1.594 0 3 0.563 4.125 1.594l14.063-8.156c-0.094-0.469-0.188-0.938-0.188-1.406 0-3.281 2.719-6 6-6s6 2.719 6 6-2.719 6-6 6c-1.594 0-3-0.656-4.125-1.688l-14.063 8.25c0.094 0.469 0.188 0.938 0.188 1.406s-0.094 0.938-0.188 1.406l14.25 8.25c1.031-0.938 2.438-1.5 3.938-1.5z"></path>
</svg>
