<!-- Generated by IcoMoon.io -->
<svg version="1.1" xmlns="http://www.w3.org/2000/svg" width="48" height="48" viewBox="0 0 48 48">
<title>supervisor_account</title>
<path d="M18 25.969c1.313 0 3 0.188 4.781 0.563-4.125 2.25-4.781 5.25-4.781 6.938v4.5h-13.969v-4.969c0-4.688 9.281-7.031 13.969-7.031zM33 28.031c3.656 0 10.969 1.781 10.969 5.438v4.5h-21.938v-4.5c0-3.656 7.313-5.438 10.969-5.438zM18 22.031c-3.281 0-6-2.719-6-6s2.719-6 6-6 6 2.719 6 6-2.719 6-6 6zM33 24c-2.719 0-4.969-2.25-4.969-4.969s2.25-5.063 4.969-5.063 4.969 2.344 4.969 5.063-2.25 4.969-4.969 4.969z"></path>
</svg>
