<!-- Generated by IcoMoon.io -->
<svg version="1.1" xmlns="http://www.w3.org/2000/svg" width="48" height="48" viewBox="0 0 48 48">
<title>thumb_down</title>
<path d="M37.969 6h8.063v24h-8.063v-24zM30 6c2.156 0 4.031 1.875 4.031 4.031v19.969c0 1.125-0.469 2.063-1.219 2.813l-13.125 13.219-2.156-2.156c-0.563-0.563-0.844-1.219-0.844-2.063v-0.656l1.969-9.188h-12.656c-2.156 0-4.031-1.781-4.031-3.938l0.094-0.188h-0.094v-3.844c0-0.563 0.094-1.031 0.281-1.5l6.094-14.063c0.563-1.406 1.969-2.438 3.656-2.438h18z"></path>
</svg>
