<!-- Generated by IcoMoon.io -->
<svg version="1.1" xmlns="http://www.w3.org/2000/svg" width="48" height="48" viewBox="0 0 48 48">
<title>whatshot</title>
<path d="M23.438 37.969c5.344 0 9.563-4.219 9.563-9.563 0-2.813-0.375-5.438-1.125-8.063-2.063 2.719-5.719 4.406-9.281 5.156s-5.625 2.906-5.625 6.188c0 3.469 2.906 6.281 6.469 6.281zM27 1.313c7.781 6.281 13.031 15.938 13.031 26.719 0 8.813-7.219 15.938-16.031 15.938s-16.031-7.125-16.031-15.938c0-6.75 2.438-13.031 6.469-17.813v0.75c0 4.125 3.094 7.406 7.219 7.406s6.844-3.281 6.844-7.406c0-4.313-1.5-9.656-1.5-9.656z"></path>
</svg>
