<!-- Generated by IcoMoon.io -->
<svg version="1.1" xmlns="http://www.w3.org/2000/svg" width="48" height="48" viewBox="0 0 48 48">
<title>zoom_out</title>
<path d="M13.969 18h10.031v1.969h-10.031v-1.969zM19.031 28.031c4.969 0 9-4.031 9-9s-4.031-9-9-9-9 4.031-9 9 4.031 9 9 9zM31.031 28.031l9.938 9.938-3 3-9.938-9.938v-1.594l-0.563-0.563c-2.25 1.969-5.25 3.094-8.438 3.094-7.219 0-13.031-5.719-13.031-12.938s5.813-13.031 13.031-13.031 12.938 5.813 12.938 13.031c0 3.188-1.125 6.188-3.094 8.438l0.563 0.563h1.594z"></path>
</svg>
